<svg xmlns="http://www.w3.org/2000/svg" xmlns:xlink="http://www.w3.org/1999/xlink" width="500" zoomAndPan="magnify" viewBox="0 0 375 374.999991" height="500" preserveAspectRatio="xMidYMid meet" version="1.0"><defs><clipPath id="dd02c189f8"><path d="M 6.195312 4.128906 L 368.804688 4.128906 L 368.804688 370.871094 L 6.195312 370.871094 Z M 6.195312 4.128906 " clip-rule="nonzero"/></clipPath><clipPath id="d0de40e140"><path d="M 54.945312 4.128906 L 320.054688 4.128906 C 332.984375 4.128906 345.382812 9.265625 354.527344 18.40625 C 363.667969 27.550781 368.804688 39.949219 368.804688 52.878906 L 368.804688 322.121094 C 368.804688 335.050781 363.667969 347.449219 354.527344 356.59375 C 345.382812 365.734375 332.984375 370.871094 320.054688 370.871094 L 54.945312 370.871094 C 42.015625 370.871094 29.617188 365.734375 20.472656 356.59375 C 11.332031 347.449219 6.195312 335.050781 6.195312 322.121094 L 6.195312 52.878906 C 6.195312 39.949219 11.332031 27.550781 20.472656 18.40625 C 29.617188 9.265625 42.015625 4.128906 54.945312 4.128906 Z M 54.945312 4.128906 " clip-rule="nonzero"/></clipPath><clipPath id="43a0edf66e"><path d="M 109 230 L 284.664062 230 L 284.664062 336.921875 L 109 336.921875 Z M 109 230 " clip-rule="nonzero"/></clipPath></defs><g clip-path="url(#dd02c189f8)"><g clip-path="url(#d0de40e140)"><path fill="#d2d2ed" d="M 6.195312 4.128906 L 368.804688 4.128906 L 368.804688 370.871094 L 6.195312 370.871094 Z M 6.195312 4.128906 " fill-opacity="1" fill-rule="nonzero"/></g></g><path fill="#f8b288" d="M 264.75 230.839844 C 264.75 230.839844 236.640625 224.832031 227.546875 216.609375 C 217.394531 207.425781 217.359375 201.761719 217.359375 182.003906 C 217.359375 165.582031 205.992188 181.734375 202.15625 187.652344 L 192.246094 187.652344 C 188.414062 181.734375 177.050781 165.582031 177.050781 182.003906 C 177.050781 201.761719 177.007812 207.425781 166.859375 216.609375 C 157.761719 224.832031 129.65625 230.839844 129.65625 230.839844 C 148.152344 232.546875 162.0625 232.332031 172.464844 230.835938 L 171.507812 236.585938 L 222.894531 236.585938 L 221.9375 230.835938 C 232.34375 232.332031 246.25 232.546875 264.75 230.839844 " fill-opacity="1" fill-rule="nonzero"/><path fill="#4c2810" d="M 204.429688 77.222656 C 204.429688 77.222656 198.519531 52.132812 175.582031 46.339844 C 144.179688 38.402344 103.929688 75.617188 121.71875 115.539062 C 139.507812 155.464844 140.003906 191.71875 130.921875 201.285156 C 121.835938 210.851562 109.773438 198.878906 113.445312 192.394531 C 113.445312 192.394531 90.539062 224.476562 133.4375 226.714844 C 176.339844 228.953125 188.734375 173.933594 188.035156 150.972656 C 187.332031 128.011719 204.429688 77.222656 204.429688 77.222656 " fill-opacity="1" fill-rule="nonzero"/><path fill="#f8ba95" d="M 149.492188 123.828125 C 149.492188 123.828125 146.699219 118.035156 140.910156 120.5 C 136.628906 122.324219 133.941406 133.953125 138.753906 143.136719 C 142.472656 150.238281 142.851562 152.144531 143.8125 154.078125 C 145.144531 156.742188 147.773438 158.128906 151.097656 156.1875 C 154.21875 154.367188 149.492188 123.828125 149.492188 123.828125 " fill-opacity="1" fill-rule="nonzero"/><path fill="#f8ba95" d="M 244.914062 123.828125 C 244.914062 123.828125 247.703125 118.035156 253.488281 120.5 C 257.773438 122.324219 260.460938 133.953125 255.652344 143.136719 C 251.929688 150.238281 251.550781 152.144531 250.589844 154.078125 C 249.265625 156.742188 246.628906 158.128906 243.308594 156.1875 C 240.183594 154.367188 244.914062 123.828125 244.914062 123.828125 " fill-opacity="1" fill-rule="nonzero"/><path fill="#f8ba95" d="M 248.011719 121.683594 C 248.011719 93.570312 225.28125 70.78125 197.199219 70.664062 C 169.125 70.78125 146.394531 93.570312 146.394531 121.683594 C 146.394531 121.683594 144.609375 145.832031 152.179688 167.34375 C 158.089844 184.132812 182.179688 203.171875 197.199219 203.347656 C 212.226562 203.171875 236.3125 184.132812 242.222656 167.34375 C 249.796875 145.832031 248.011719 121.683594 248.011719 121.683594 " fill-opacity="1" fill-rule="nonzero"/><path fill="#5a3114" d="M 150.832031 120.886719 C 151.300781 125.300781 152.015625 129.632812 152.902344 133.941406 C 156.539062 120.742188 166.902344 110.332031 179.066406 107.023438 C 191.449219 103.660156 224.359375 113.703125 227.003906 96.316406 C 227.261719 94.59375 233.933594 107.5625 234.578125 112.5625 C 235.496094 119.695312 238.078125 124.257812 241.902344 127.167969 C 246.625 130.765625 246.144531 137.792969 247.429688 143.011719 C 249.8125 131.808594 249.8125 126.871094 249.8125 126.871094 C 249.8125 110.886719 247.113281 93.179688 237.820312 81.035156 C 228.273438 68.554688 211.9375 61.847656 197.199219 61.78125 C 183.097656 61.847656 166.722656 68.25 157.28125 79.855469 C 147.257812 92.171875 144.589844 110.179688 144.589844 126.871094 C 144.589844 126.871094 144.179688 138 147.167969 144.769531 C 147.210938 132.207031 150.652344 119.179688 150.832031 120.886719 " fill-opacity="1" fill-rule="nonzero"/><g clip-path="url(#43a0edf66e)"><path fill="#8282db" d="M 262.785156 230.523438 L 131.617188 230.523438 C 119.046875 231.851562 109.875 245.652344 109.875 254.191406 L 109.875 321.054688 C 109.875 329.597656 116.796875 336.523438 125.339844 336.523438 L 269.066406 336.523438 C 277.609375 336.523438 284.53125 329.597656 284.53125 321.054688 L 284.53125 254.191406 C 284.53125 245.652344 275.359375 231.851562 262.785156 230.523438 " fill-opacity="1" fill-rule="nonzero"/></g><path fill="#8282db" d="M 186.523438 236.585938 C 185.382812 234.292969 184.421875 232.1875 183.507812 230.523438 C 178.792969 221.984375 160.152344 220.925781 160.140625 220.925781 C 148.3125 226.855469 129.65625 230.839844 129.65625 230.839844 C 148.152344 232.546875 186.523438 236.585938 186.523438 236.585938 " fill-opacity="1" fill-rule="nonzero"/><path fill="#8282db" d="M 208.160156 236.542969 C 209.304688 234.25 209.867188 232.699219 210.894531 230.523438 C 215.070312 221.707031 234.253906 220.925781 234.261719 220.925781 C 246.089844 226.855469 264.75 230.839844 264.75 230.839844 C 246.25 232.546875 208.160156 236.542969 208.160156 236.542969 " fill-opacity="1" fill-rule="nonzero"/><path fill="#f8b288" d="M 183.507812 230.523438 L 197.75 258.945312 L 210.894531 230.523438 L 197.257812 226.785156 L 183.507812 230.523438 " fill-opacity="1" fill-rule="nonzero"/><path fill="#8282db" d="M 152.167969 176.835938 C 152.167969 186.132812 149.734375 187.332031 146.738281 187.332031 C 143.742188 187.332031 141.308594 186.132812 141.308594 176.835938 C 141.308594 167.527344 146.738281 153.648438 146.738281 153.648438 C 146.738281 153.648438 152.167969 167.527344 152.167969 176.835938 " fill-opacity="1" fill-rule="nonzero"/><path fill="#8282db" d="M 253.625 176.835938 C 253.625 186.132812 251.195312 187.332031 248.195312 187.332031 C 245.199219 187.332031 242.769531 186.132812 242.769531 176.835938 C 242.769531 167.527344 248.195312 153.648438 248.195312 153.648438 C 248.195312 153.648438 253.625 167.527344 253.625 176.835938 " fill-opacity="1" fill-rule="nonzero"/></svg>