<svg xmlns="http://www.w3.org/2000/svg" xmlns:xlink="http://www.w3.org/1999/xlink" width="500" zoomAndPan="magnify" viewBox="0 0 375 374.999991" height="500" preserveAspectRatio="xMidYMid meet" version="1.0"><defs><clipPath id="819d277634"><path d="M 6.195312 4.128906 L 368.804688 4.128906 L 368.804688 370.871094 L 6.195312 370.871094 Z M 6.195312 4.128906 " clip-rule="nonzero"/></clipPath><clipPath id="289cce3ec9"><path d="M 54.945312 4.128906 L 320.054688 4.128906 C 332.984375 4.128906 345.382812 9.265625 354.527344 18.40625 C 363.667969 27.550781 368.804688 39.949219 368.804688 52.878906 L 368.804688 322.121094 C 368.804688 335.050781 363.667969 347.449219 354.527344 356.59375 C 345.382812 365.734375 332.984375 370.871094 320.054688 370.871094 L 54.945312 370.871094 C 42.015625 370.871094 29.617188 365.734375 20.472656 356.59375 C 11.332031 347.449219 6.195312 335.050781 6.195312 322.121094 L 6.195312 52.878906 C 6.195312 39.949219 11.332031 27.550781 20.472656 18.40625 C 29.617188 9.265625 42.015625 4.128906 54.945312 4.128906 Z M 54.945312 4.128906 " clip-rule="nonzero"/></clipPath><clipPath id="9c4b950053"><path d="M 56 69.945312 L 319 69.945312 L 319 304.695312 L 56 304.695312 Z M 56 69.945312 " clip-rule="nonzero"/></clipPath></defs><g clip-path="url(#819d277634)"><g clip-path="url(#289cce3ec9)"><path fill="#d2d2ed" d="M 6.195312 4.128906 L 368.804688 4.128906 L 368.804688 370.871094 L 6.195312 370.871094 Z M 6.195312 4.128906 " fill-opacity="1" fill-rule="nonzero"/></g></g><g clip-path="url(#9c4b950053)"><path fill="#8282db" d="M 318.488281 141.960938 C 318.488281 102.046875 286.132812 69.6875 246.222656 69.6875 C 221.996094 69.6875 200.617188 81.648438 187.5 99.929688 C 174.382812 81.648438 153.003906 69.6875 128.78125 69.6875 C 88.867188 69.6875 56.507812 102.039062 56.507812 141.960938 C 56.507812 147.617188 57.226562 153.09375 58.457031 158.375 C 68.492188 220.722656 137.8125 286.5 187.5 304.5625 C 237.179688 286.5 306.507812 220.722656 316.527344 158.382812 C 317.773438 153.101562 318.488281 147.625 318.488281 141.960938 Z M 318.488281 141.960938 " fill-opacity="1" fill-rule="nonzero"/></g><path fill="#6858b0" d="M 285.808594 153.234375 C 285.808594 123.269531 261.53125 98.992188 231.574219 98.992188 C 213.398438 98.992188 197.351562 107.964844 187.5 121.6875 C 177.65625 107.964844 161.609375 98.992188 143.429688 98.992188 C 113.476562 98.992188 89.1875 123.269531 89.1875 153.234375 C 89.1875 157.472656 89.730469 161.589844 90.644531 165.546875 C 98.183594 212.339844 150.203125 261.71875 187.5 275.265625 C 224.785156 261.710938 276.816406 212.339844 284.34375 165.550781 C 285.273438 161.589844 285.808594 157.472656 285.808594 153.234375 Z M 285.808594 153.234375 " fill-opacity="1" fill-rule="nonzero"/><path fill="#5b4c9f" d="M 254.8125 163.917969 C 254.8125 143.40625 238.1875 126.773438 217.679688 126.773438 C 205.230469 126.773438 194.246094 132.917969 187.5 142.320312 C 180.761719 132.917969 169.769531 126.773438 157.316406 126.773438 C 136.800781 126.773438 120.167969 143.40625 120.167969 163.917969 C 120.167969 166.828125 120.535156 169.640625 121.164062 172.347656 C 126.328125 204.398438 161.953125 238.207031 187.492188 247.488281 C 213.015625 238.199219 248.660156 204.390625 253.8125 172.347656 C 254.457031 169.640625 254.8125 166.820312 254.8125 163.917969 Z M 254.8125 163.917969 " fill-opacity="1" fill-rule="nonzero"/></svg>