<svg xmlns="http://www.w3.org/2000/svg" xmlns:xlink="http://www.w3.org/1999/xlink" width="500" zoomAndPan="magnify" viewBox="0 0 375 374.999991" height="500" preserveAspectRatio="xMidYMid meet" version="1.0"><defs><clipPath id="56fc146b78"><path d="M 6.195312 4.128906 L 368.804688 4.128906 L 368.804688 370.871094 L 6.195312 370.871094 Z M 6.195312 4.128906 " clip-rule="nonzero"/></clipPath><clipPath id="39e7655a1c"><path d="M 54.945312 4.128906 L 320.054688 4.128906 C 332.984375 4.128906 345.382812 9.265625 354.527344 18.40625 C 363.667969 27.550781 368.804688 39.949219 368.804688 52.878906 L 368.804688 322.121094 C 368.804688 335.050781 363.667969 347.449219 354.527344 356.59375 C 345.382812 365.734375 332.984375 370.871094 320.054688 370.871094 L 54.945312 370.871094 C 42.015625 370.871094 29.617188 365.734375 20.472656 356.59375 C 11.332031 347.449219 6.195312 335.050781 6.195312 322.121094 L 6.195312 52.878906 C 6.195312 39.949219 11.332031 27.550781 20.472656 18.40625 C 29.617188 9.265625 42.015625 4.128906 54.945312 4.128906 Z M 54.945312 4.128906 " clip-rule="nonzero"/></clipPath><clipPath id="05a1020378"><path d="M 112.375 59.628906 L 262.375 59.628906 L 262.375 315.378906 L 112.375 315.378906 Z M 112.375 59.628906 " clip-rule="nonzero"/></clipPath></defs><g clip-path="url(#56fc146b78)"><g clip-path="url(#39e7655a1c)"><path fill="#d2d2ed" d="M 6.195312 4.128906 L 368.804688 4.128906 L 368.804688 370.871094 L 6.195312 370.871094 Z M 6.195312 4.128906 " fill-opacity="1" fill-rule="nonzero"/></g></g><g clip-path="url(#05a1020378)"><path fill="#8282db" d="M 204.578125 208.078125 C 218.917969 204.921875 231.402344 197.785156 241.96875 186.601562 C 255.691406 172.128906 262.621094 154.699219 262.621094 134.875 C 262.621094 121.90625 259.328125 109.421875 252.808594 97.757812 C 246.152344 85.75 236.753906 76.285156 224.75 69.628906 C 213.015625 63.042969 200.53125 59.679688 187.5625 59.679688 C 174.527344 59.679688 161.972656 62.972656 150.3125 69.492188 C 138.441406 76.144531 128.972656 85.546875 122.25 97.550781 L 122.183594 97.621094 C 115.664062 109.421875 112.371094 121.90625 112.371094 134.875 C 112.371094 148.183594 115.800781 160.945312 122.59375 172.882812 L 122.664062 173.019531 C 129.660156 184.957031 139.128906 194.21875 150.859375 200.53125 L 150.996094 200.601562 C 157.582031 204.097656 163.964844 206.570312 170.207031 208.078125 L 170.207031 229.484375 L 116.28125 229.484375 L 116.28125 263.855469 L 170.207031 263.855469 L 170.207031 315.3125 L 204.582031 315.3125 L 204.582031 263.855469 L 258.367188 263.855469 L 258.367188 229.484375 L 204.582031 229.484375 L 204.582031 208.078125 Z M 187.425781 93.710938 C 194.496094 93.710938 201.148438 95.496094 207.941406 99.199219 L 208.078125 99.269531 C 214.597656 102.699219 219.535156 107.570312 223.171875 114.085938 C 226.945312 120.878906 228.796875 127.738281 228.796875 134.941406 C 228.796875 146.539062 224.820312 156.074219 216.65625 164.308594 C 208.558594 172.402344 199.023438 176.382812 187.429688 176.382812 C 175.972656 176.382812 166.367188 172.472656 158.203125 164.308594 C 150.105469 156.144531 146.128906 146.539062 146.128906 134.941406 C 146.128906 127.738281 147.980469 120.878906 151.753906 114.085938 C 155.390625 107.570312 160.328125 102.699219 166.777344 99.199219 C 173.707031 95.496094 180.429688 93.710938 187.429688 93.710938 Z M 187.425781 93.710938 " fill-opacity="1" fill-rule="nonzero"/></g></svg>