<svg width="24" height="25" viewBox="0 0 24 25" fill="none" xmlns="http://www.w3.org/2000/svg" title="quotes" class="sc-1b506079-7 hVqWYn"><path d="M4.583 17.5966C3.553 16.5026 3 15.2756 3 13.2866C3 9.78663 5.457 6.64963 9.03 5.09863L9.923 6.47663C6.588 8.28063 5.936 10.6216 5.676 12.0976C6.213 11.8196 6.916 11.7226 7.605 11.7866C9.409 11.9536 10.831 13.4346 10.831 15.2756C10.831 16.2039 10.4623 17.0941 9.80587 17.7505C9.1495 18.4069 8.25926 18.7756 7.331 18.7756C6.258 18.7756 5.232 18.2856 4.583 17.5966ZM14.583 17.5966C13.553 16.5026 13 15.2756 13 13.2866C13 9.78663 15.457 6.64963 19.03 5.09863L19.923 6.47663C16.588 8.28063 15.936 10.6216 15.676 12.0976C16.213 11.8196 16.916 11.7226 17.605 11.7866C19.409 11.9536 20.831 13.4346 20.831 15.2756C20.831 16.2039 20.4623 17.0941 19.8059 17.7505C19.1495 18.4069 18.2593 18.7756 17.331 18.7756C16.258 18.7756 15.232 18.2856 14.583 17.5966Z" fill="#2F2E37"></path></svg>