<svg xmlns="http://www.w3.org/2000/svg" xmlns:xlink="http://www.w3.org/1999/xlink" width="500" zoomAndPan="magnify" viewBox="0 0 375 374.999991" height="500" preserveAspectRatio="xMidYMid meet" version="1.0"><path fill="#6858b0" d="M 110.0625 61.828125 C 108.257812 62.671875 106.484375 63.566406 104.738281 64.519531 C 102.988281 65.46875 101.269531 66.472656 99.578125 67.527344 C 97.886719 68.582031 96.226562 69.691406 94.597656 70.847656 C 92.96875 72.007812 91.371094 73.21875 89.808594 74.476562 C 88.242188 75.734375 86.714844 77.042969 85.21875 78.398438 C 83.722656 79.757812 82.265625 81.160156 80.84375 82.609375 C 79.417969 84.0625 78.035156 85.558594 76.6875 87.097656 C 75.34375 88.640625 74.035156 90.222656 72.769531 91.851562 C 71.503906 93.480469 70.277344 95.148438 69.09375 96.859375 C 67.90625 98.570312 66.765625 100.320312 65.667969 102.109375 C 64.566406 103.898438 63.511719 105.726562 62.5 107.589844 C 61.488281 109.453125 60.523438 111.351562 59.601562 113.285156 C 58.683594 115.222656 57.808594 117.1875 56.980469 119.1875 C 56.148438 121.1875 55.371094 123.214844 54.636719 125.273438 C 53.902344 127.335938 53.214844 129.421875 52.578125 131.539062 C 51.941406 133.652344 51.351562 135.792969 50.8125 137.957031 C 50.273438 140.125 49.785156 142.3125 49.34375 144.523438 C 48.902344 146.734375 48.511719 148.964844 48.171875 151.214844 C 47.832031 153.464844 47.542969 155.734375 47.304688 158.019531 C 47.0625 160.304688 46.875 162.605469 46.738281 164.917969 C 46.601562 167.234375 46.515625 169.558594 46.480469 171.894531 C 46.441406 174.234375 46.457031 176.578125 46.523438 178.933594 C 46.589844 181.289062 46.710938 183.652344 46.878906 186.019531 C 47.046875 188.386719 47.265625 190.757812 47.535156 193.128906 C 47.804688 195.503906 48.125 197.878906 48.496094 200.253906 C 48.867188 202.628906 49.285156 205 49.757812 207.367188 C 50.226562 209.738281 50.75 212.101562 51.316406 214.460938 C 51.886719 216.820312 52.503906 219.167969 53.171875 221.511719 C 53.839844 223.851562 54.554688 226.183594 55.316406 228.503906 C 56.078125 230.824219 56.890625 233.128906 57.746094 235.421875 C 58.601562 237.714844 59.503906 239.992188 60.453125 242.25 C 61.402344 244.507812 62.394531 246.75 63.433594 248.96875 C 64.472656 251.1875 65.554688 253.386719 66.679688 255.5625 C 67.804688 257.742188 68.972656 259.890625 70.183594 262.019531 C 71.390625 264.144531 72.640625 266.246094 73.933594 268.320312 C 75.226562 270.390625 76.554688 272.433594 77.925781 274.449219 C 79.292969 276.460938 80.703125 278.441406 82.148438 280.390625 C 83.589844 282.339844 85.070312 284.257812 86.589844 286.136719 C 88.105469 288.015625 89.65625 289.859375 91.238281 291.667969 C 92.824219 293.472656 94.441406 295.242188 96.089844 296.972656 C 97.738281 298.699219 99.417969 300.386719 101.125 302.035156 C 102.832031 303.683594 104.570312 305.285156 106.335938 306.847656 C 108.101562 308.410156 109.890625 309.925781 111.707031 311.398438 C 113.523438 312.867188 115.363281 314.292969 117.226562 315.671875 C 119.09375 317.050781 120.976562 318.378906 122.882812 319.660156 C 124.792969 320.945312 126.71875 322.175781 128.664062 323.359375 C 130.609375 324.539062 132.570312 325.671875 134.550781 326.75 C 136.527344 327.828125 138.523438 328.855469 140.53125 329.832031 C 142.539062 330.804688 144.558594 331.726562 146.589844 332.59375 C 148.621094 333.460938 150.664062 334.273438 152.714844 335.03125 C 154.765625 335.789062 156.824219 336.488281 158.886719 337.136719 C 160.953125 337.78125 163.023438 338.371094 165.097656 338.90625 C 167.171875 339.4375 169.25 339.914062 171.328125 340.332031 C 173.40625 340.753906 175.484375 341.113281 177.5625 341.417969 C 179.640625 341.722656 181.714844 341.96875 183.789062 342.15625 C 185.859375 342.34375 187.929688 342.472656 189.988281 342.546875 C 192.050781 342.617188 194.105469 342.628906 196.148438 342.585938 C 198.195312 342.539062 200.230469 342.4375 202.257812 342.277344 C 204.28125 342.113281 206.292969 341.894531 208.292969 341.617188 C 210.292969 341.339844 212.277344 341.003906 214.246094 340.613281 C 216.214844 340.21875 218.167969 339.769531 220.101562 339.261719 C 222.035156 338.753906 223.949219 338.191406 225.84375 337.570312 C 227.738281 336.949219 229.613281 336.273438 231.460938 335.539062 C 233.3125 334.808594 235.136719 334.019531 236.9375 333.179688 C 238.738281 332.335938 240.515625 331.441406 242.261719 330.488281 C 244.011719 329.539062 245.730469 328.535156 247.421875 327.480469 C 249.113281 326.425781 250.773438 325.316406 252.402344 324.15625 C 254.03125 323 255.628906 321.789062 257.191406 320.53125 C 258.757812 319.269531 260.285156 317.964844 261.78125 316.605469 C 263.277344 315.25 264.734375 313.847656 266.15625 312.394531 C 267.578125 310.945312 268.964844 309.449219 270.3125 307.910156 C 271.65625 306.367188 272.964844 304.785156 274.230469 303.15625 C 275.496094 301.527344 276.722656 299.859375 277.90625 298.148438 C 279.089844 296.4375 280.234375 294.6875 281.332031 292.898438 C 282.433594 291.109375 283.488281 289.28125 284.5 287.417969 C 285.511719 285.554688 286.476562 283.652344 287.398438 281.71875 C 288.316406 279.785156 289.191406 277.820312 290.019531 275.820312 C 290.847656 273.820312 291.628906 271.792969 292.363281 269.730469 C 293.097656 267.671875 293.785156 265.585938 294.421875 263.46875 C 295.058594 261.355469 295.648438 259.214844 296.1875 257.046875 C 296.726562 254.882812 297.214844 252.695312 297.65625 250.484375 C 298.097656 248.273438 298.488281 246.042969 298.828125 243.792969 C 299.167969 241.539062 299.457031 239.273438 299.695312 236.988281 C 299.933594 234.703125 300.125 232.402344 300.261719 230.089844 C 300.398438 227.773438 300.484375 225.449219 300.519531 223.109375 C 300.554688 220.773438 300.539062 218.425781 300.472656 216.070312 C 300.40625 213.714844 300.289062 211.355469 300.121094 208.988281 C 299.953125 206.621094 299.734375 204.25 299.464844 201.875 C 299.195312 199.503906 298.875 197.128906 298.503906 194.753906 C 298.132812 192.378906 297.710938 190.007812 297.242188 187.640625 C 296.769531 185.269531 296.25 182.90625 295.683594 180.546875 C 295.113281 178.1875 294.496094 175.839844 293.828125 173.496094 C 293.160156 171.152344 292.445312 168.824219 291.683594 166.503906 C 290.921875 164.183594 290.109375 161.878906 289.253906 159.585938 C 288.398438 157.292969 287.496094 155.015625 286.546875 152.757812 C 285.597656 150.5 284.605469 148.257812 283.566406 146.039062 C 282.527344 143.816406 281.445312 141.621094 280.320312 139.441406 C 279.195312 137.265625 278.027344 135.113281 276.816406 132.988281 C 275.609375 130.859375 274.355469 128.761719 273.066406 126.6875 C 271.773438 124.613281 270.445312 122.570312 269.074219 120.558594 C 267.703125 118.546875 266.296875 116.5625 264.851562 114.613281 C 263.40625 112.664062 261.925781 110.75 260.410156 108.871094 C 258.894531 106.988281 257.34375 105.144531 255.761719 103.339844 C 254.175781 101.53125 252.558594 99.765625 250.910156 98.035156 C 249.261719 96.308594 247.582031 94.617188 245.875 92.972656 C 244.164062 91.324219 242.429688 89.71875 240.664062 88.160156 C 238.898438 86.597656 237.109375 85.082031 235.292969 83.609375 C 233.476562 82.136719 231.636719 80.714844 229.773438 79.335938 C 227.90625 77.957031 226.023438 76.628906 224.113281 75.34375 C 222.207031 74.0625 220.28125 72.832031 218.335938 71.648438 C 216.390625 70.46875 214.429688 69.335938 212.449219 68.257812 C 210.472656 67.175781 208.476562 66.152344 206.46875 65.175781 C 204.460938 64.203125 202.441406 63.28125 200.410156 62.414062 C 198.378906 61.546875 196.335938 60.734375 194.285156 59.976562 C 192.234375 59.21875 190.175781 58.515625 188.109375 57.871094 C 186.046875 57.226562 183.976562 56.636719 181.902344 56.101562 C 179.828125 55.570312 177.75 55.09375 175.671875 54.671875 C 173.59375 54.253906 171.515625 53.894531 169.4375 53.589844 C 167.359375 53.285156 165.28125 53.039062 163.210938 52.851562 C 161.136719 52.664062 159.070312 52.535156 157.011719 52.460938 C 154.949219 52.390625 152.894531 52.378906 150.847656 52.421875 C 148.804688 52.46875 146.769531 52.570312 144.742188 52.730469 C 142.71875 52.894531 140.707031 53.113281 138.707031 53.390625 C 136.707031 53.667969 134.722656 54.003906 132.753906 54.394531 C 130.785156 54.789062 128.832031 55.238281 126.898438 55.746094 C 124.964844 56.253906 123.050781 56.816406 121.15625 57.4375 C 119.261719 58.058594 117.386719 58.734375 115.539062 59.46875 C 113.6875 60.199219 111.863281 60.988281 110.0625 61.828125 Z M 110.0625 61.828125 " fill-opacity="1" fill-rule="nonzero"/><path fill="#8282db" d="M 132.183594 51.488281 C 130.382812 52.328125 128.605469 53.226562 126.859375 54.175781 C 125.109375 55.125 123.390625 56.128906 121.699219 57.183594 C 120.007812 58.242188 118.347656 59.347656 116.71875 60.507812 C 115.089844 61.667969 113.492188 62.875 111.929688 64.132812 C 110.363281 65.394531 108.835938 66.703125 107.339844 68.058594 C 105.84375 69.414062 104.386719 70.820312 102.964844 72.269531 C 101.542969 73.71875 100.15625 75.214844 98.8125 76.757812 C 97.464844 78.296875 96.15625 79.882812 94.890625 81.511719 C 93.625 83.136719 92.398438 84.808594 91.214844 86.519531 C 90.03125 88.226562 88.886719 89.980469 87.789062 91.769531 C 86.691406 93.558594 85.632812 95.382812 84.621094 97.25 C 83.613281 99.113281 82.644531 101.011719 81.726562 102.945312 C 80.804688 104.878906 79.929688 106.84375 79.101562 108.84375 C 78.273438 110.84375 77.492188 112.875 76.757812 114.933594 C 76.023438 116.992188 75.339844 119.082031 74.699219 121.195312 C 74.0625 123.3125 73.476562 125.449219 72.933594 127.617188 C 72.394531 129.78125 71.90625 131.96875 71.464844 134.179688 C 71.023438 136.390625 70.632812 138.625 70.292969 140.875 C 69.953125 143.125 69.664062 145.390625 69.425781 147.675781 C 69.1875 149.964844 68.996094 152.261719 68.859375 154.578125 C 68.722656 156.890625 68.636719 159.214844 68.601562 161.554688 C 68.566406 163.890625 68.582031 166.238281 68.648438 168.59375 C 68.714844 170.949219 68.832031 173.308594 69 175.675781 C 69.167969 178.042969 69.386719 180.414062 69.65625 182.789062 C 69.925781 185.164062 70.246094 187.535156 70.617188 189.910156 C 70.988281 192.285156 71.410156 194.65625 71.878906 197.027344 C 72.351562 199.394531 72.871094 201.757812 73.441406 204.117188 C 74.007812 206.476562 74.628906 208.828125 75.292969 211.167969 C 75.960938 213.511719 76.675781 215.84375 77.4375 218.164062 C 78.203125 220.480469 79.011719 222.789062 79.867188 225.082031 C 80.722656 227.371094 81.625 229.648438 82.574219 231.90625 C 83.523438 234.167969 84.515625 236.40625 85.554688 238.625 C 86.59375 240.847656 87.675781 243.046875 88.800781 245.222656 C 89.925781 247.398438 91.09375 249.550781 92.304688 251.675781 C 93.511719 253.804688 94.765625 255.90625 96.054688 257.976562 C 97.347656 260.050781 98.675781 262.09375 100.046875 264.105469 C 101.417969 266.121094 102.824219 268.101562 104.269531 270.050781 C 105.714844 272 107.195312 273.914062 108.710938 275.796875 C 110.226562 277.675781 111.777344 279.519531 113.363281 281.324219 C 114.945312 283.132812 116.5625 284.902344 118.210938 286.628906 C 119.859375 288.359375 121.539062 290.046875 123.246094 291.695312 C 124.957031 293.339844 126.691406 294.945312 128.457031 296.507812 C 130.222656 298.066406 132.011719 299.582031 133.828125 301.054688 C 135.644531 302.527344 137.484375 303.953125 139.351562 305.328125 C 141.214844 306.707031 143.097656 308.039062 145.007812 309.320312 C 146.914062 310.601562 148.839844 311.832031 150.785156 313.015625 C 152.730469 314.199219 154.691406 315.328125 156.671875 316.410156 C 158.648438 317.488281 160.644531 318.515625 162.652344 319.488281 C 164.660156 320.464844 166.679688 321.382812 168.710938 322.25 C 170.742188 323.117188 172.785156 323.929688 174.835938 324.6875 C 176.886719 325.445312 178.945312 326.148438 181.011719 326.792969 C 183.074219 327.441406 185.144531 328.03125 187.21875 328.5625 C 189.292969 329.097656 191.371094 329.574219 193.449219 329.992188 C 195.527344 330.410156 197.605469 330.773438 199.683594 331.078125 C 201.761719 331.378906 203.839844 331.625 205.910156 331.8125 C 207.984375 332.003906 210.050781 332.132812 212.113281 332.203125 C 214.171875 332.273438 216.226562 332.289062 218.273438 332.242188 C 220.316406 332.199219 222.355469 332.09375 224.378906 331.933594 C 226.402344 331.773438 228.417969 331.550781 230.414062 331.273438 C 232.414062 330.996094 234.398438 330.664062 236.367188 330.269531 C 238.339844 329.875 240.289062 329.425781 242.222656 328.917969 C 244.160156 328.410156 246.074219 327.847656 247.96875 327.226562 C 249.863281 326.605469 251.734375 325.929688 253.582031 325.199219 C 255.433594 324.464844 257.257812 323.679688 259.0625 322.835938 C 260.863281 321.992188 262.636719 321.097656 264.386719 320.148438 C 266.132812 319.199219 267.851562 318.195312 269.542969 317.136719 C 271.234375 316.082031 272.894531 314.976562 274.523438 313.816406 C 276.152344 312.65625 277.75 311.449219 279.316406 310.1875 C 280.878906 308.929688 282.410156 307.621094 283.902344 306.265625 C 285.398438 304.910156 286.855469 303.503906 288.28125 302.054688 C 289.703125 300.605469 291.085938 299.109375 292.433594 297.566406 C 293.777344 296.027344 295.085938 294.441406 296.351562 292.8125 C 297.621094 291.1875 298.84375 289.515625 300.03125 287.804688 C 301.214844 286.09375 302.355469 284.34375 303.453125 282.554688 C 304.554688 280.765625 305.609375 278.9375 306.621094 277.074219 C 307.632812 275.210938 308.597656 273.3125 309.519531 271.378906 C 310.441406 269.445312 311.316406 267.476562 312.144531 265.480469 C 312.972656 263.480469 313.753906 261.449219 314.484375 259.390625 C 315.21875 257.332031 315.90625 255.242188 316.542969 253.128906 C 317.179688 251.011719 317.769531 248.871094 318.308594 246.707031 C 318.847656 244.542969 319.339844 242.351562 319.777344 240.140625 C 320.21875 237.929688 320.609375 235.699219 320.949219 233.449219 C 321.289062 231.199219 321.578125 228.929688 321.816406 226.644531 C 322.058594 224.359375 322.246094 222.0625 322.382812 219.746094 C 322.519531 217.433594 322.605469 215.105469 322.644531 212.769531 C 322.679688 210.433594 322.664062 208.085938 322.597656 205.730469 C 322.53125 203.375 322.414062 201.011719 322.242188 198.644531 C 322.074219 196.277344 321.855469 193.910156 321.585938 191.535156 C 321.316406 189.160156 320.996094 186.785156 320.625 184.414062 C 320.253906 182.039062 319.835938 179.667969 319.363281 177.296875 C 318.894531 174.925781 318.375 172.5625 317.804688 170.207031 C 317.234375 167.847656 316.617188 165.496094 315.949219 163.15625 C 315.28125 160.8125 314.566406 158.480469 313.804688 156.160156 C 313.042969 153.839844 312.234375 151.535156 311.375 149.242188 C 310.519531 146.949219 309.617188 144.675781 308.667969 142.414062 C 307.71875 140.15625 306.726562 137.917969 305.6875 135.695312 C 304.648438 133.476562 303.566406 131.277344 302.441406 129.101562 C 301.316406 126.925781 300.148438 124.773438 298.941406 122.644531 C 297.730469 120.519531 296.480469 118.417969 295.1875 116.347656 C 293.898438 114.273438 292.566406 112.230469 291.195312 110.21875 C 289.828125 108.203125 288.417969 106.222656 286.976562 104.273438 C 285.53125 102.324219 284.050781 100.410156 282.53125 98.527344 C 281.015625 96.648438 279.464844 94.804688 277.882812 92.996094 C 276.296875 91.191406 274.679688 89.421875 273.03125 87.695312 C 271.382812 85.964844 269.707031 84.277344 267.996094 82.628906 C 266.289062 80.984375 264.550781 79.378906 262.785156 77.816406 C 261.023438 76.257812 259.230469 74.738281 257.414062 73.269531 C 255.597656 71.796875 253.757812 70.371094 251.894531 68.992188 C 250.03125 67.613281 248.144531 66.285156 246.238281 65.003906 C 244.332031 63.722656 242.402344 62.488281 240.457031 61.308594 C 238.511719 60.125 236.550781 58.996094 234.574219 57.914062 C 232.59375 56.835938 230.601562 55.808594 228.59375 54.835938 C 226.585938 53.859375 224.5625 52.9375 222.53125 52.070312 C 220.5 51.203125 218.460938 50.390625 216.40625 49.636719 C 214.355469 48.878906 212.296875 48.175781 210.234375 47.53125 C 208.167969 46.882812 206.097656 46.292969 204.023438 45.761719 C 201.949219 45.226562 199.871094 44.75 197.792969 44.332031 C 195.714844 43.914062 193.636719 43.550781 191.558594 43.246094 C 189.480469 42.941406 187.40625 42.699219 185.332031 42.507812 C 183.261719 42.320312 181.195312 42.191406 179.132812 42.121094 C 177.070312 42.046875 175.015625 42.035156 172.972656 42.082031 C 170.925781 42.125 168.890625 42.226562 166.863281 42.390625 C 164.839844 42.550781 162.828125 42.769531 160.828125 43.046875 C 158.828125 43.324219 156.84375 43.660156 154.875 44.054688 C 152.90625 44.445312 150.953125 44.898438 149.019531 45.40625 C 147.085938 45.910156 145.171875 46.476562 143.277344 47.097656 C 141.382812 47.714844 139.511719 48.394531 137.660156 49.125 C 135.808594 49.859375 133.984375 50.644531 132.183594 51.488281 Z M 132.183594 51.488281 " fill-opacity="1" fill-rule="nonzero"/><path fill="#f1f1f1" d="M 146.554688 82.222656 C 145.160156 82.875 143.789062 83.566406 142.4375 84.304688 C 141.082031 85.039062 139.753906 85.8125 138.445312 86.628906 C 137.136719 87.445312 135.855469 88.304688 134.59375 89.199219 C 133.332031 90.097656 132.097656 91.03125 130.886719 92.003906 C 129.679688 92.980469 128.496094 93.992188 127.339844 95.039062 C 126.183594 96.089844 125.054688 97.175781 123.953125 98.296875 C 122.855469 99.417969 121.78125 100.574219 120.742188 101.769531 C 119.699219 102.960938 118.691406 104.183594 117.710938 105.445312 C 116.730469 106.703125 115.78125 107.996094 114.867188 109.316406 C 113.949219 110.640625 113.066406 111.996094 112.214844 113.378906 C 111.367188 114.761719 110.550781 116.175781 109.769531 117.617188 C 108.984375 119.058594 108.238281 120.527344 107.527344 122.023438 C 106.8125 123.519531 106.136719 125.039062 105.496094 126.585938 C 104.855469 128.132812 104.25 129.703125 103.683594 131.296875 C 103.117188 132.890625 102.585938 134.503906 102.09375 136.140625 C 101.601562 137.777344 101.144531 139.433594 100.726562 141.105469 C 100.308594 142.78125 99.929688 144.472656 99.589844 146.183594 C 99.25 147.894531 98.949219 149.621094 98.683594 151.359375 C 98.421875 153.101562 98.195312 154.855469 98.011719 156.625 C 97.828125 158.390625 97.679688 160.167969 97.574219 161.960938 C 97.46875 163.75 97.402344 165.546875 97.375 167.355469 C 97.347656 169.164062 97.359375 170.980469 97.410156 172.800781 C 97.460938 174.621094 97.550781 176.449219 97.683594 178.28125 C 97.8125 180.109375 97.980469 181.945312 98.191406 183.78125 C 98.398438 185.617188 98.648438 187.453125 98.933594 189.289062 C 99.222656 191.125 99.546875 192.960938 99.910156 194.792969 C 100.273438 196.625 100.675781 198.453125 101.117188 200.277344 C 101.558594 202.101562 102.035156 203.921875 102.550781 205.730469 C 103.066406 207.542969 103.621094 209.347656 104.210938 211.140625 C 104.800781 212.933594 105.425781 214.71875 106.089844 216.492188 C 106.75 218.265625 107.449219 220.023438 108.183594 221.773438 C 108.917969 223.519531 109.683594 225.25 110.488281 226.96875 C 111.292969 228.6875 112.128906 230.386719 113 232.070312 C 113.867188 233.753906 114.773438 235.417969 115.707031 237.0625 C 116.644531 238.707031 117.609375 240.332031 118.609375 241.9375 C 119.609375 243.539062 120.636719 245.121094 121.695312 246.675781 C 122.757812 248.234375 123.84375 249.765625 124.960938 251.273438 C 126.078125 252.78125 127.222656 254.261719 128.398438 255.71875 C 129.570312 257.171875 130.769531 258.597656 131.996094 259.996094 C 133.21875 261.390625 134.472656 262.757812 135.746094 264.097656 C 137.019531 265.433594 138.320312 266.738281 139.640625 268.015625 C 140.960938 269.289062 142.304688 270.527344 143.671875 271.734375 C 145.035156 272.945312 146.421875 274.117188 147.824219 275.253906 C 149.230469 276.394531 150.65625 277.496094 152.097656 278.5625 C 153.539062 279.625 154.996094 280.65625 156.472656 281.648438 C 157.945312 282.636719 159.4375 283.589844 160.941406 284.503906 C 162.445312 285.417969 163.964844 286.292969 165.492188 287.128906 C 167.023438 287.964844 168.566406 288.757812 170.117188 289.511719 C 171.671875 290.265625 173.234375 290.976562 174.804688 291.648438 C 176.378906 292.320312 177.957031 292.949219 179.542969 293.535156 C 181.128906 294.121094 182.722656 294.664062 184.320312 295.164062 C 185.917969 295.660156 187.519531 296.117188 189.121094 296.53125 C 190.726562 296.941406 192.332031 297.3125 193.941406 297.636719 C 195.546875 297.960938 197.15625 298.238281 198.765625 298.472656 C 200.371094 298.710938 201.976562 298.898438 203.578125 299.042969 C 205.183594 299.191406 206.78125 299.289062 208.375 299.347656 C 209.96875 299.402344 211.558594 299.410156 213.140625 299.375 C 214.722656 299.34375 216.296875 299.261719 217.863281 299.136719 C 219.429688 299.011719 220.988281 298.84375 222.53125 298.628906 C 224.078125 298.414062 225.613281 298.152344 227.136719 297.851562 C 228.660156 297.546875 230.171875 297.199219 231.667969 296.804688 C 233.164062 296.414062 234.644531 295.976562 236.109375 295.496094 C 237.574219 295.015625 239.023438 294.492188 240.453125 293.925781 C 241.882812 293.359375 243.296875 292.75 244.6875 292.101562 C 246.082031 291.449219 247.457031 290.753906 248.808594 290.019531 C 250.160156 289.285156 251.488281 288.511719 252.796875 287.691406 C 254.105469 286.875 255.390625 286.019531 256.648438 285.125 C 257.910156 284.226562 259.144531 283.292969 260.355469 282.316406 C 261.566406 281.34375 262.75 280.332031 263.90625 279.28125 C 265.0625 278.234375 266.1875 277.148438 267.289062 276.027344 C 268.390625 274.90625 269.460938 273.746094 270.5 272.554688 C 271.542969 271.363281 272.554688 270.136719 273.535156 268.878906 C 274.511719 267.621094 275.460938 266.328125 276.378906 265.003906 C 277.292969 263.683594 278.175781 262.328125 279.027344 260.945312 C 279.878906 259.558594 280.695312 258.148438 281.476562 256.707031 C 282.257812 255.265625 283.003906 253.796875 283.71875 252.300781 C 284.429688 250.804688 285.105469 249.28125 285.746094 247.734375 C 286.386719 246.191406 286.992188 244.621094 287.558594 243.027344 C 288.128906 241.433594 288.65625 239.820312 289.152344 238.183594 C 289.644531 236.546875 290.097656 234.890625 290.515625 233.214844 C 290.933594 231.542969 291.3125 229.847656 291.652344 228.140625 C 291.992188 226.429688 292.296875 224.703125 292.558594 222.960938 C 292.824219 221.222656 293.046875 219.46875 293.230469 217.699219 C 293.417969 215.933594 293.5625 214.152344 293.667969 212.363281 C 293.773438 210.574219 293.839844 208.773438 293.871094 206.96875 C 293.898438 205.160156 293.882812 203.34375 293.832031 201.523438 C 293.78125 199.699219 293.691406 197.875 293.5625 196.042969 C 293.429688 194.210938 293.261719 192.378906 293.050781 190.542969 C 292.84375 188.707031 292.597656 186.871094 292.308594 185.035156 C 292.023438 183.199219 291.695312 181.363281 291.332031 179.53125 C 290.96875 177.699219 290.566406 175.871094 290.125 174.046875 C 289.6875 172.222656 289.207031 170.402344 288.691406 168.59375 C 288.175781 166.78125 287.625 164.976562 287.035156 163.183594 C 286.445312 161.390625 285.816406 159.605469 285.15625 157.832031 C 284.492188 156.058594 283.792969 154.300781 283.0625 152.550781 C 282.328125 150.804688 281.558594 149.070312 280.753906 147.355469 C 279.953125 145.636719 279.117188 143.9375 278.246094 142.253906 C 277.375 140.570312 276.472656 138.90625 275.535156 137.261719 C 274.601562 135.617188 273.632812 133.992188 272.632812 132.386719 C 271.636719 130.785156 270.605469 129.203125 269.546875 127.648438 C 268.488281 126.089844 267.398438 124.558594 266.28125 123.050781 C 265.164062 121.542969 264.019531 120.0625 262.847656 118.605469 C 261.671875 117.152344 260.472656 115.726562 259.25 114.328125 C 258.023438 112.929688 256.773438 111.5625 255.496094 110.226562 C 254.222656 108.890625 252.925781 107.582031 251.601562 106.308594 C 250.28125 105.035156 248.9375 103.792969 247.574219 102.585938 C 246.207031 101.378906 244.824219 100.207031 243.417969 99.070312 C 242.011719 97.929688 240.589844 96.828125 239.148438 95.761719 C 237.707031 94.695312 236.246094 93.667969 234.773438 92.675781 C 233.296875 91.683594 231.808594 90.730469 230.304688 89.816406 C 228.796875 88.902344 227.28125 88.027344 225.75 87.195312 C 224.21875 86.359375 222.675781 85.566406 221.125 84.8125 C 219.570312 84.058594 218.007812 83.34375 216.4375 82.675781 C 214.867188 82.003906 213.285156 81.375 211.699219 80.789062 C 210.113281 80.203125 208.523438 79.660156 206.925781 79.160156 C 205.328125 78.660156 203.726562 78.207031 202.121094 77.792969 C 200.515625 77.378906 198.910156 77.011719 197.300781 76.6875 C 195.695312 76.363281 194.085938 76.085938 192.480469 75.847656 C 190.871094 75.613281 189.265625 75.425781 187.664062 75.277344 C 186.0625 75.132812 184.464844 75.03125 182.867188 74.976562 C 181.273438 74.921875 179.6875 74.910156 178.101562 74.945312 C 176.519531 74.980469 174.945312 75.0625 173.378906 75.1875 C 171.8125 75.3125 170.257812 75.480469 168.710938 75.695312 C 167.164062 75.910156 165.628906 76.167969 164.105469 76.472656 C 162.582031 76.777344 161.074219 77.125 159.578125 77.519531 C 158.082031 77.910156 156.601562 78.347656 155.136719 78.828125 C 153.667969 79.304688 152.222656 79.828125 150.789062 80.394531 C 149.359375 80.960938 147.949219 81.570312 146.554688 82.222656 Z M 146.554688 82.222656 " fill-opacity="1" fill-rule="nonzero"/><path fill="#8282db" d="M 162.480469 116.28125 C 161.539062 116.71875 160.609375 117.1875 159.695312 117.683594 C 158.785156 118.179688 157.886719 118.707031 157 119.257812 C 156.117188 119.808594 155.25 120.386719 154.398438 120.992188 C 153.546875 121.597656 152.714844 122.230469 151.898438 122.886719 C 151.078125 123.546875 150.28125 124.230469 149.5 124.9375 C 148.71875 125.644531 147.957031 126.378906 147.214844 127.136719 C 146.46875 127.894531 145.746094 128.675781 145.042969 129.480469 C 144.339844 130.285156 143.65625 131.113281 142.996094 131.964844 C 142.335938 132.816406 141.695312 133.6875 141.074219 134.582031 C 140.457031 135.476562 139.859375 136.390625 139.285156 137.324219 C 138.710938 138.257812 138.160156 139.214844 137.632812 140.1875 C 137.101562 141.160156 136.597656 142.152344 136.117188 143.164062 C 135.636719 144.175781 135.179688 145.203125 134.746094 146.246094 C 134.3125 147.289062 133.90625 148.351562 133.523438 149.425781 C 133.136719 150.503906 132.78125 151.59375 132.449219 152.699219 C 132.113281 153.804688 131.808594 154.921875 131.523438 156.054688 C 131.242188 157.183594 130.988281 158.328125 130.757812 159.484375 C 130.527344 160.636719 130.324219 161.804688 130.144531 162.980469 C 129.96875 164.15625 129.816406 165.339844 129.691406 166.535156 C 129.566406 167.726562 129.46875 168.929688 129.394531 170.136719 C 129.324219 171.347656 129.277344 172.5625 129.261719 173.785156 C 129.242188 175.003906 129.25 176.230469 129.285156 177.460938 C 129.320312 178.691406 129.378906 179.925781 129.46875 181.164062 C 129.558594 182.398438 129.671875 183.636719 129.8125 184.878906 C 129.953125 186.117188 130.121094 187.359375 130.3125 188.597656 C 130.507812 189.839844 130.726562 191.078125 130.972656 192.316406 C 131.21875 193.554688 131.492188 194.789062 131.789062 196.019531 C 132.085938 197.253906 132.410156 198.480469 132.757812 199.703125 C 133.105469 200.929688 133.480469 202.144531 133.878906 203.359375 C 134.277344 204.570312 134.699219 205.773438 135.148438 206.972656 C 135.59375 208.171875 136.066406 209.359375 136.5625 210.539062 C 137.058594 211.71875 137.574219 212.890625 138.117188 214.050781 C 138.660156 215.210938 139.226562 216.359375 139.8125 217.496094 C 140.402344 218.632812 141.011719 219.757812 141.644531 220.867188 C 142.277344 221.980469 142.929688 223.074219 143.605469 224.160156 C 144.277344 225.242188 144.972656 226.308594 145.6875 227.359375 C 146.40625 228.414062 147.140625 229.449219 147.894531 230.464844 C 148.648438 231.484375 149.421875 232.484375 150.214844 233.46875 C 151.007812 234.449219 151.816406 235.414062 152.644531 236.355469 C 153.472656 237.300781 154.316406 238.226562 155.179688 239.128906 C 156.039062 240.03125 156.917969 240.914062 157.808594 241.773438 C 158.703125 242.632812 159.609375 243.472656 160.53125 244.289062 C 161.453125 245.105469 162.390625 245.894531 163.339844 246.664062 C 164.289062 247.433594 165.25 248.175781 166.222656 248.898438 C 167.195312 249.617188 168.179688 250.3125 169.179688 250.980469 C 170.175781 251.652344 171.179688 252.296875 172.195312 252.914062 C 173.214844 253.53125 174.238281 254.121094 175.273438 254.683594 C 176.304688 255.25 177.347656 255.785156 178.394531 256.296875 C 179.445312 256.804688 180.5 257.285156 181.5625 257.738281 C 182.625 258.191406 183.691406 258.617188 184.761719 259.011719 C 185.832031 259.40625 186.910156 259.773438 187.988281 260.113281 C 189.066406 260.449219 190.148438 260.757812 191.230469 261.035156 C 192.316406 261.3125 193.402344 261.5625 194.488281 261.78125 C 195.574219 262 196.660156 262.191406 197.746094 262.347656 C 198.828125 262.507812 199.914062 262.636719 200.996094 262.734375 C 202.078125 262.832031 203.160156 262.898438 204.234375 262.9375 C 205.3125 262.976562 206.386719 262.980469 207.453125 262.957031 C 208.523438 262.933594 209.585938 262.878906 210.644531 262.796875 C 211.703125 262.710938 212.753906 262.597656 213.800781 262.453125 C 214.84375 262.308594 215.878906 262.132812 216.910156 261.925781 C 217.9375 261.722656 218.957031 261.488281 219.96875 261.222656 C 220.980469 260.957031 221.980469 260.660156 222.96875 260.335938 C 223.957031 260.011719 224.9375 259.660156 225.902344 259.277344 C 226.871094 258.894531 227.824219 258.484375 228.765625 258.042969 C 229.707031 257.601562 230.632812 257.136719 231.546875 256.640625 C 232.460938 256.140625 233.359375 255.617188 234.242188 255.066406 C 235.125 254.515625 235.992188 253.9375 236.84375 253.332031 C 237.695312 252.726562 238.527344 252.09375 239.347656 251.4375 C 240.164062 250.777344 240.960938 250.09375 241.742188 249.386719 C 242.523438 248.675781 243.285156 247.945312 244.03125 247.1875 C 244.773438 246.429688 245.496094 245.648438 246.199219 244.839844 C 246.902344 244.035156 247.585938 243.207031 248.246094 242.359375 C 248.910156 241.507812 249.550781 240.636719 250.167969 239.742188 C 250.789062 238.847656 251.382812 237.933594 251.957031 237 C 252.53125 236.0625 253.082031 235.109375 253.613281 234.136719 C 254.140625 233.164062 254.644531 232.171875 255.125 231.160156 C 255.609375 230.148438 256.066406 229.121094 256.496094 228.078125 C 256.929688 227.03125 257.339844 225.972656 257.722656 224.898438 C 258.105469 223.820312 258.464844 222.730469 258.796875 221.625 C 259.128906 220.519531 259.4375 219.402344 259.71875 218.269531 C 260 217.140625 260.257812 215.996094 260.488281 214.839844 C 260.714844 213.683594 260.921875 212.519531 261.097656 211.34375 C 261.277344 210.167969 261.425781 208.984375 261.550781 207.789062 C 261.675781 206.59375 261.777344 205.394531 261.847656 204.183594 C 261.917969 202.976562 261.964844 201.761719 261.984375 200.539062 C 262 199.320312 261.992188 198.09375 261.957031 196.863281 C 261.925781 195.632812 261.863281 194.398438 261.773438 193.160156 C 261.6875 191.925781 261.574219 190.6875 261.429688 189.445312 C 261.289062 188.207031 261.125 186.964844 260.929688 185.726562 C 260.734375 184.484375 260.515625 183.246094 260.269531 182.007812 C 260.023438 180.769531 259.753906 179.535156 259.457031 178.300781 C 259.15625 177.070312 258.835938 175.84375 258.484375 174.617188 C 258.136719 173.394531 257.765625 172.175781 257.367188 170.964844 C 256.96875 169.753906 256.542969 168.546875 256.097656 167.351562 C 255.648438 166.152344 255.179688 164.964844 254.683594 163.785156 C 254.1875 162.605469 253.667969 161.433594 253.125 160.273438 C 252.582031 159.113281 252.019531 157.964844 251.429688 156.828125 C 250.84375 155.691406 250.230469 154.566406 249.601562 153.457031 C 248.96875 152.34375 248.316406 151.246094 247.640625 150.164062 C 246.964844 149.082031 246.269531 148.015625 245.554688 146.960938 C 244.839844 145.910156 244.105469 144.875 243.347656 143.855469 C 242.59375 142.839844 241.820312 141.839844 241.027344 140.855469 C 240.234375 139.875 239.425781 138.910156 238.597656 137.964844 C 237.769531 137.023438 236.925781 136.097656 236.066406 135.195312 C 235.203125 134.292969 234.328125 133.410156 233.433594 132.550781 C 232.542969 131.6875 231.632812 130.851562 230.710938 130.035156 C 229.789062 129.21875 228.855469 128.425781 227.90625 127.660156 C 226.957031 126.890625 225.996094 126.144531 225.019531 125.425781 C 224.046875 124.707031 223.0625 124.011719 222.066406 123.339844 C 221.070312 122.671875 220.0625 122.027344 219.046875 121.410156 C 218.03125 120.792969 217.003906 120.203125 215.972656 119.636719 C 214.9375 119.074219 213.894531 118.539062 212.847656 118.027344 C 211.796875 117.519531 210.742188 117.039062 209.679688 116.585938 C 208.621094 116.132812 207.554688 115.707031 206.480469 115.3125 C 205.410156 114.917969 204.335938 114.550781 203.253906 114.210938 C 202.175781 113.875 201.09375 113.566406 200.011719 113.289062 C 198.929688 113.007812 197.84375 112.761719 196.757812 112.542969 C 195.671875 112.324219 194.585938 112.132812 193.5 111.976562 C 192.414062 111.816406 191.328125 111.6875 190.246094 111.589844 C 189.164062 111.492188 188.085938 111.421875 187.007812 111.386719 C 185.929688 111.347656 184.855469 111.34375 183.789062 111.367188 C 182.71875 111.390625 181.65625 111.441406 180.597656 111.527344 C 179.539062 111.613281 178.488281 111.726562 177.445312 111.871094 C 176.398438 112.015625 175.363281 112.191406 174.332031 112.398438 C 173.304688 112.601562 172.285156 112.835938 171.273438 113.101562 C 170.265625 113.367188 169.265625 113.660156 168.273438 113.984375 C 167.285156 114.308594 166.308594 114.664062 165.339844 115.046875 C 164.375 115.429688 163.417969 115.839844 162.480469 116.28125 Z M 162.480469 116.28125 " fill-opacity="1" fill-rule="nonzero"/><path fill="#f1f1f1" d="M 180.734375 155.320312 C 179.886719 155.714844 179.066406 156.160156 178.273438 156.65625 C 177.476562 157.152344 176.714844 157.695312 175.980469 158.285156 C 175.246094 158.878906 174.542969 159.515625 173.875 160.195312 C 173.207031 160.878906 172.578125 161.601562 171.980469 162.363281 C 171.386719 163.128906 170.832031 163.933594 170.316406 164.773438 C 169.796875 165.613281 169.324219 166.488281 168.890625 167.394531 C 168.460938 168.304688 168.070312 169.242188 167.726562 170.207031 C 167.382812 171.175781 167.082031 172.167969 166.828125 173.1875 C 166.574219 174.203125 166.371094 175.238281 166.210938 176.296875 C 166.050781 177.355469 165.9375 178.425781 165.875 179.511719 C 165.808594 180.601562 165.792969 181.695312 165.824219 182.800781 C 165.855469 183.910156 165.933594 185.019531 166.058594 186.132812 C 166.1875 187.25 166.359375 188.363281 166.582031 189.476562 C 166.804688 190.589844 167.070312 191.695312 167.382812 192.796875 C 167.695312 193.894531 168.054688 194.984375 168.457031 196.058594 C 168.859375 197.136719 169.304688 198.195312 169.792969 199.238281 C 170.28125 200.28125 170.808594 201.304688 171.375 202.300781 C 171.945312 203.300781 172.550781 204.273438 173.191406 205.21875 C 173.835938 206.164062 174.515625 207.078125 175.226562 207.960938 C 175.9375 208.847656 176.683594 209.695312 177.457031 210.503906 C 178.230469 211.316406 179.03125 212.089844 179.859375 212.824219 C 180.691406 213.558594 181.542969 214.246094 182.417969 214.894531 C 183.292969 215.542969 184.1875 216.144531 185.101562 216.699219 C 186.015625 217.253906 186.941406 217.761719 187.886719 218.21875 C 188.828125 218.675781 189.78125 219.082031 190.746094 219.4375 C 191.707031 219.792969 192.675781 220.097656 193.652344 220.347656 C 194.625 220.597656 195.601562 220.796875 196.578125 220.9375 C 197.554688 221.082031 198.523438 221.167969 199.492188 221.203125 C 200.460938 221.234375 201.421875 221.214844 202.371094 221.140625 C 203.324219 221.0625 204.261719 220.933594 205.1875 220.75 C 206.109375 220.5625 207.019531 220.328125 207.90625 220.035156 C 208.796875 219.742188 209.664062 219.398438 210.511719 219.003906 C 211.355469 218.609375 212.175781 218.164062 212.972656 217.667969 C 213.765625 217.171875 214.53125 216.628906 215.265625 216.035156 C 216 215.445312 216.699219 214.808594 217.367188 214.128906 C 218.035156 213.445312 218.667969 212.722656 219.261719 211.957031 C 219.855469 211.195312 220.414062 210.390625 220.929688 209.550781 C 221.445312 208.710938 221.917969 207.835938 222.351562 206.929688 C 222.785156 206.019531 223.171875 205.082031 223.515625 204.113281 C 223.863281 203.148438 224.160156 202.15625 224.414062 201.136719 C 224.667969 200.121094 224.875 199.082031 225.035156 198.027344 C 225.195312 196.96875 225.304688 195.898438 225.371094 194.8125 C 225.433594 193.722656 225.453125 192.628906 225.421875 191.519531 C 225.390625 190.414062 225.308594 189.304688 225.183594 188.1875 C 225.054688 187.074219 224.882812 185.960938 224.660156 184.847656 C 224.441406 183.734375 224.171875 182.628906 223.859375 181.527344 C 223.546875 180.429688 223.1875 179.339844 222.785156 178.261719 C 222.382812 177.1875 221.9375 176.128906 221.453125 175.085938 C 220.964844 174.042969 220.4375 173.019531 219.867188 172.019531 C 219.300781 171.023438 218.695312 170.050781 218.050781 169.105469 C 217.40625 168.160156 216.730469 167.242188 216.015625 166.359375 C 215.304688 165.476562 214.5625 164.628906 213.789062 163.816406 C 213.011719 163.003906 212.210938 162.234375 211.382812 161.5 C 210.554688 160.765625 209.703125 160.074219 208.828125 159.429688 C 207.949219 158.78125 207.054688 158.179688 206.144531 157.625 C 205.230469 157.070312 204.300781 156.5625 203.359375 156.105469 C 202.414062 155.648438 201.460938 155.242188 200.5 154.886719 C 199.535156 154.527344 198.566406 154.226562 197.59375 153.976562 C 196.617188 153.726562 195.644531 153.527344 194.667969 153.386719 C 193.691406 153.242188 192.71875 153.15625 191.75 153.121094 C 190.78125 153.085938 189.824219 153.109375 188.871094 153.183594 C 187.921875 153.261719 186.984375 153.390625 186.058594 153.574219 C 185.132812 153.757812 184.226562 153.996094 183.335938 154.289062 C 182.445312 154.578125 181.578125 154.921875 180.734375 155.320312 Z M 180.734375 155.320312 " fill-opacity="1" fill-rule="nonzero"/><path fill="#8282db" d="M 279.351562 130.804688 C 279.351562 130.804688 301.402344 58.511719 323.792969 47.464844 C 346.183594 36.414062 338.914062 102.941406 338.914062 102.941406 Z M 279.351562 130.804688 " fill-opacity="1" fill-rule="nonzero"/><path fill="#8282db" d="M 291.15625 153.085938 C 291.15625 153.085938 356.941406 172.503906 365.960938 155.351562 C 374.980469 138.195312 351.972656 130.804688 351.972656 130.804688 Z M 291.15625 153.085938 " fill-opacity="1" fill-rule="nonzero"/><path fill="#5656bf" d="M 324.15625 111.554688 C 324.371094 111.554688 324.578125 111.515625 324.777344 111.4375 C 324.976562 111.359375 325.152344 111.25 325.308594 111.105469 C 325.46875 110.960938 325.59375 110.792969 325.6875 110.601562 C 325.78125 110.410156 325.835938 110.210938 325.855469 109.996094 L 329.855469 65.0625 C 329.863281 64.84375 329.828125 64.632812 329.753906 64.425781 C 329.679688 64.222656 329.570312 64.039062 329.425781 63.875 C 329.28125 63.710938 329.113281 63.582031 328.917969 63.480469 C 328.722656 63.382812 328.515625 63.324219 328.296875 63.304688 C 328.082031 63.285156 327.867188 63.308594 327.660156 63.371094 C 327.449219 63.433594 327.257812 63.53125 327.085938 63.667969 C 326.917969 63.800781 326.777344 63.964844 326.667969 64.152344 C 326.558594 64.339844 326.488281 64.542969 326.453125 64.757812 L 322.453125 109.695312 C 322.433594 109.921875 322.457031 110.140625 322.527344 110.355469 C 322.59375 110.574219 322.699219 110.765625 322.847656 110.941406 C 322.992188 111.113281 323.164062 111.253906 323.363281 111.359375 C 323.566406 111.464844 323.777344 111.527344 324.003906 111.546875 Z M 324.15625 111.554688 " fill-opacity="1" fill-rule="nonzero"/><path fill="#5656bf" d="M 311.074219 117.671875 C 311.289062 117.671875 311.5 117.632812 311.699219 117.554688 C 311.902344 117.476562 312.082031 117.363281 312.238281 117.214844 C 312.398438 117.066406 312.523438 116.898438 312.617188 116.703125 C 312.710938 116.507812 312.765625 116.304688 312.78125 116.089844 L 314.742188 88.636719 C 314.769531 88.402344 314.75 88.175781 314.683594 87.949219 C 314.621094 87.726562 314.511719 87.523438 314.363281 87.339844 C 314.214844 87.160156 314.035156 87.015625 313.828125 86.910156 C 313.621094 86.800781 313.398438 86.738281 313.164062 86.722656 C 312.933594 86.707031 312.703125 86.734375 312.484375 86.8125 C 312.261719 86.890625 312.066406 87.007812 311.890625 87.164062 C 311.71875 87.320312 311.582031 87.507812 311.484375 87.71875 C 311.390625 87.933594 311.335938 88.15625 311.332031 88.390625 L 309.402344 115.84375 C 309.386719 116.070312 309.417969 116.289062 309.488281 116.503906 C 309.558594 116.71875 309.671875 116.910156 309.816406 117.082031 C 309.964844 117.253906 310.140625 117.390625 310.34375 117.492188 C 310.546875 117.59375 310.757812 117.652344 310.984375 117.671875 Z M 311.074219 117.671875 " fill-opacity="1" fill-rule="nonzero"/><path fill="#5656bf" d="M 351.417969 151.53125 C 351.625 151.53125 351.828125 151.496094 352.019531 151.425781 C 352.214844 151.355469 352.390625 151.25 352.550781 151.113281 C 352.707031 150.980469 352.832031 150.820312 352.933594 150.636719 C 353.03125 150.453125 353.09375 150.261719 353.125 150.054688 C 353.152344 149.847656 353.140625 149.644531 353.09375 149.441406 C 353.050781 149.242188 352.96875 149.054688 352.851562 148.878906 C 352.738281 148.707031 352.597656 148.5625 352.429688 148.441406 C 352.257812 148.320312 352.074219 148.230469 351.875 148.179688 L 324.613281 140.589844 C 324.398438 140.527344 324.175781 140.507812 323.949219 140.53125 C 323.726562 140.558594 323.511719 140.625 323.316406 140.734375 C 323.117188 140.847656 322.945312 140.988281 322.804688 141.167969 C 322.664062 141.34375 322.5625 141.542969 322.5 141.757812 C 322.4375 141.976562 322.417969 142.199219 322.445312 142.421875 C 322.46875 142.648438 322.539062 142.859375 322.648438 143.058594 C 322.757812 143.257812 322.898438 143.425781 323.078125 143.570312 C 323.253906 143.710938 323.453125 143.8125 323.667969 143.875 L 350.960938 151.472656 C 351.109375 151.507812 351.261719 151.527344 351.417969 151.53125 Z M 351.417969 151.53125 " fill-opacity="1" fill-rule="nonzero"/><path fill="#5656bf" d="M 191.386719 183.84375 L 191.550781 183.949219 C 192.226562 184.332031 192.945312 184.5625 193.71875 184.640625 C 194.488281 184.714844 195.242188 184.632812 195.976562 184.390625 L 344.832031 135.429688 C 345.660156 135.15625 346.460938 134.820312 347.238281 134.421875 C 348.015625 134.023438 348.753906 133.566406 349.460938 133.050781 C 350.164062 132.535156 350.824219 131.964844 351.441406 131.347656 C 352.054688 130.730469 352.617188 130.066406 353.128906 129.359375 C 353.640625 128.652344 354.09375 127.90625 354.488281 127.128906 C 354.882812 126.351562 355.214844 125.546875 355.484375 124.714844 C 355.753906 123.886719 355.953125 123.039062 356.089844 122.175781 C 356.226562 121.316406 356.292969 120.445312 356.292969 119.574219 C 356.296875 117.773438 356.011719 116.019531 355.4375 114.3125 C 355.25 113.75 355.03125 113.199219 354.78125 112.660156 C 354.535156 112.121094 354.257812 111.597656 353.957031 111.085938 C 353.652344 110.578125 353.324219 110.085938 352.964844 109.609375 C 352.609375 109.136719 352.230469 108.683594 351.824219 108.25 C 351.421875 107.8125 350.992188 107.402344 350.546875 107.015625 C 350.097656 106.625 349.628906 106.261719 349.140625 105.925781 C 348.65625 105.585938 348.152344 105.273438 347.628906 104.988281 C 347.109375 104.703125 346.574219 104.449219 346.027344 104.21875 C 345.480469 103.992188 344.921875 103.792969 344.351562 103.625 C 343.785156 103.457031 343.207031 103.320312 342.625 103.214844 C 342.039062 103.105469 341.453125 103.03125 340.863281 102.988281 C 340.269531 102.945312 339.675781 102.929688 339.085938 102.949219 C 338.492188 102.96875 337.902344 103.019531 337.3125 103.101562 C 336.726562 103.183594 336.144531 103.296875 335.570312 103.441406 C 334.992188 103.585938 334.425781 103.757812 333.871094 103.964844 C 333.3125 104.167969 332.769531 104.402344 332.238281 104.664062 L 191.65625 174.195312 C 190.683594 174.671875 189.925781 175.378906 189.382812 176.3125 C 189.199219 176.625 189.046875 176.953125 188.925781 177.292969 C 188.808594 177.636719 188.722656 177.988281 188.671875 178.347656 C 188.625 178.707031 188.609375 179.066406 188.632812 179.429688 C 188.652344 179.792969 188.710938 180.148438 188.804688 180.5 C 188.898438 180.847656 189.023438 181.1875 189.183594 181.511719 C 189.34375 181.835938 189.535156 182.144531 189.757812 182.429688 C 189.980469 182.71875 190.226562 182.980469 190.5 183.21875 C 190.773438 183.457031 191.070312 183.664062 191.386719 183.84375 Z M 191.386719 183.84375 " fill-opacity="1" fill-rule="nonzero"/></svg>