<svg xmlns="http://www.w3.org/2000/svg" xmlns:xlink="http://www.w3.org/1999/xlink" width="500" zoomAndPan="magnify" viewBox="0 0 375 374.999991" height="500" preserveAspectRatio="xMidYMid meet" version="1.0"><defs><clipPath id="3a309abdca"><path d="M 24.574219 49.148438 L 350 49.148438 L 350 374.648438 L 24.574219 374.648438 Z M 24.574219 49.148438 " clip-rule="nonzero"/></clipPath><clipPath id="81018fcd24"><path d="M 71 257 L 302 257 L 302 374.648438 L 71 374.648438 Z M 71 257 " clip-rule="nonzero"/></clipPath><clipPath id="005a27a7de"><path d="M 275.875 3.992188 L 359.453125 3.992188 L 359.453125 87.175781 L 275.875 87.175781 Z M 275.875 3.992188 " clip-rule="nonzero"/></clipPath></defs><g clip-path="url(#3a309abdca)"><path fill="#8282db" d="M 186.664062 48.3125 C 96.683594 48.3125 23.738281 121.253906 23.738281 211.238281 C 23.738281 301.21875 96.683594 374.164062 186.664062 374.164062 C 276.644531 374.164062 349.589844 301.21875 349.589844 211.238281 C 349.589844 121.253906 276.644531 48.3125 186.664062 48.3125 Z M 186.664062 48.3125 " fill-opacity="1" fill-rule="evenodd"/></g><path fill="#eceff1" d="M 186.664062 115.152344 C 152.054688 115.152344 124 143.207031 124 177.816406 C 124 212.425781 152.054688 240.480469 186.664062 240.480469 C 221.273438 240.480469 249.328125 212.425781 249.328125 177.816406 C 249.328125 143.207031 221.273438 115.152344 186.664062 115.152344 Z M 186.664062 115.152344 " fill-opacity="1" fill-rule="evenodd"/><g clip-path="url(#81018fcd24)"><path fill="#eceff1" d="M 301.691406 326.617188 L 298.761719 321.808594 C 276.371094 283.199219 234.5625 257.191406 186.664062 257.191406 C 138.714844 257.191406 96.863281 283.257812 74.492188 321.933594 L 74.375 322.140625 L 71.804688 326.789062 C 101.257812 356.070312 141.847656 374.164062 186.664062 374.164062 C 231.5625 374.164062 272.222656 356 301.691406 326.617188 Z M 301.691406 326.617188 " fill-opacity="1" fill-rule="evenodd"/></g><g clip-path="url(#005a27a7de)"><path fill="#8282db" d="M 319.628906 7.550781 L 324.894531 4.570312 C 327.015625 3.367188 329.710938 4.101562 330.929688 6.210938 L 333.964844 11.453125 C 334.757812 12.828125 336.222656 13.671875 337.8125 13.671875 L 344.113281 13.671875 C 346.402344 13.671875 348.320312 15.414062 348.535156 17.695312 L 349.152344 24.109375 C 349.292969 25.570312 350.140625 26.867188 351.425781 27.574219 L 357.03125 30.675781 C 359.179688 31.863281 359.957031 34.566406 358.769531 36.714844 L 355.679688 42.304688 C 354.964844 43.597656 354.941406 45.160156 355.613281 46.476562 L 358.96875 53.042969 C 360.058594 55.179688 359.257812 57.792969 357.164062 58.953125 L 351.9375 61.851562 C 350.523438 62.632812 349.648438 64.121094 349.648438 65.738281 L 349.648438 73.210938 C 349.648438 75.664062 347.65625 77.652344 345.203125 77.652344 L 338.921875 77.652344 C 337.546875 77.652344 336.25 78.289062 335.40625 79.375 L 331.328125 84.644531 C 330.109375 86.214844 328 86.785156 326.15625 86.046875 L 319.273438 83.277344 C 318.113281 82.808594 316.8125 82.851562 315.683594 83.398438 C 313.378906 84.507812 311.070312 85.621094 308.765625 86.734375 C 306.722656 87.71875 304.269531 87.007812 303.066406 85.085938 C 301.910156 83.238281 300.753906 81.386719 299.597656 79.539062 C 298.714844 78.128906 297.125 77.332031 295.46875 77.464844 C 293.960938 77.589844 292.453125 77.710938 290.941406 77.832031 C 288.339844 78.042969 286.117188 75.976562 286.140625 73.367188 L 286.1875 67.664062 C 286.199219 65.894531 285.164062 64.285156 283.546875 63.566406 L 279.238281 61.652344 C 276.988281 60.65625 275.980469 58.023438 276.980469 55.777344 C 278.046875 53.398438 279.109375 51.015625 280.175781 48.632812 C 280.726562 47.402344 280.6875 45.984375 280.066406 44.785156 L 276.371094 37.621094 C 275.324219 35.59375 275.984375 33.101562 277.894531 31.859375 L 283.730469 28.0625 C 285.019531 27.222656 285.78125 25.78125 285.75 24.246094 L 285.628906 18.25 C 285.574219 15.695312 287.683594 13.621094 290.242188 13.71875 L 296.90625 13.976562 C 298.59375 14.039062 300.167969 13.144531 300.976562 11.667969 L 303.890625 6.335938 C 305.074219 4.167969 307.800781 3.382812 309.957031 4.589844 L 315.269531 7.5625 C 316.625 8.320312 318.277344 8.316406 319.628906 7.550781 " fill-opacity="1" fill-rule="nonzero"/></g><path fill="#ffffff" d="M 297.484375 45.140625 L 302.273438 40.0625 L 312.863281 50.070312 L 333.03125 29.757812 L 337.964844 34.691406 L 312.71875 59.9375 L 297.484375 45.140625 " fill-opacity="1" fill-rule="nonzero"/></svg>