<svg xmlns="http://www.w3.org/2000/svg" xmlns:xlink="http://www.w3.org/1999/xlink" width="500" zoomAndPan="magnify" viewBox="0 0 375 374.999991" height="500" preserveAspectRatio="xMidYMid meet" version="1.0"><defs><clipPath id="8a246ef32c"><path d="M 22.261719 22.261719 L 353 22.261719 L 353 353 L 22.261719 353 Z M 22.261719 22.261719 " clip-rule="nonzero"/></clipPath></defs><g clip-path="url(#8a246ef32c)"><path fill="#8282db" d="M 187.496094 22.261719 C 96.347656 22.261719 22.261719 96.347656 22.261719 187.496094 C 22.261719 278.640625 96.347656 352.730469 187.496094 352.730469 C 278.640625 352.730469 352.730469 278.640625 352.730469 187.496094 C 352.730469 96.347656 278.640625 22.261719 187.496094 22.261719 Z M 104.238281 136.21875 C 104.238281 118.523438 118.523438 104.238281 136.21875 104.238281 C 153.808594 104.238281 168.199219 118.523438 168.199219 136.21875 C 168.199219 153.808594 153.808594 168.199219 136.21875 168.199219 C 118.523438 168.199219 104.238281 153.808594 104.238281 136.21875 Z M 147.519531 276.292969 C 144.425781 280.984375 139.308594 283.4375 134.195312 283.4375 C 131.101562 283.4375 128.011719 282.585938 125.34375 280.773438 C 117.988281 275.867188 115.964844 265.953125 120.867188 258.597656 L 227.472656 98.695312 C 232.375 91.339844 242.289062 89.3125 249.644531 94.21875 C 257 99.121094 259.027344 109.035156 254.121094 116.390625 Z M 238.769531 270.75 C 221.179688 270.75 206.789062 256.464844 206.789062 238.769531 C 206.789062 221.179688 221.179688 206.789062 238.769531 206.789062 C 256.464844 206.789062 270.75 221.179688 270.75 238.769531 C 270.75 256.464844 256.464844 270.75 238.769531 270.75 Z M 238.769531 270.75 " fill-opacity="1" fill-rule="nonzero"/></g></svg>