<svg data-v-d63a90d2="" width="25" height="24" viewBox="0 0 25 24" fill="none" xmlns="http://www.w3.org/2000/svg"><g data-v-d63a90d2="" clip-path="url(#clip0_7158_14454)"><path data-v-d63a90d2="" fill-rule="evenodd" clip-rule="evenodd" d="M20.2992 16C20.3008 17.4047 19.9418 18.785 19.2582 20.0022C18.5746 21.2194 17.5905 22.2306 16.4051 22.934C15.2196 23.6374 13.8744 24.0082 12.5048 24.0092C11.1352 24.0102 9.78962 23.6413 8.60315 22.9397C7.41667 22.2381 6.43116 21.2284 5.74587 20.0122C5.06057 18.796 4.69961 17.4162 4.69922 16.0115C4.69882 14.6068 5.059 13.2268 5.74361 12.0102C6.42822 10.7936 7.41314 9.78334 8.59922 9.08099V4C8.59922 2.93913 9.01017 1.92172 9.74156 1.17157C10.473 0.421424 11.4649 0 12.4992 0C13.5336 0 14.5255 0.421424 15.2569 1.17157C15.9883 1.92172 16.3992 2.93913 16.3992 4V9.07999C17.5843 9.78082 18.5687 10.7893 19.2533 12.004C19.9379 13.2188 20.2986 14.5969 20.2992 16ZM8.59922 9.08099L8.72597 9.00201H8.59922V9.08099ZM12.4992 2.00201C11.982 2.00201 11.4861 2.21273 11.1204 2.5878C10.7547 2.96287 10.5492 3.47158 10.5492 4.00201V8.26199C11.8267 7.91132 13.1717 7.91132 14.4492 8.26199V4C14.4492 3.46957 14.2437 2.96086 13.878 2.58578C13.5124 2.21071 13.0164 2 12.4992 2V2.00201ZM16.3992 9.00201H16.2725L16.3992 9.08099V9V9.00201ZM12.4992 9.98901C11.3398 9.98862 10.2064 10.3409 9.24216 11.0012C8.27795 11.6616 7.52628 12.6004 7.08233 13.6989C6.63837 14.7974 6.52205 16.0063 6.748 17.1727C6.97396 18.339 7.53208 19.4104 8.35178 20.2514C9.17148 21.0924 10.2158 21.6652 11.353 21.8973C12.4901 22.1295 13.6688 22.0105 14.74 21.5555C15.8112 21.1006 16.7268 20.33 17.371 19.3413C18.0152 18.3526 18.359 17.1902 18.359 16.001C18.3574 14.4072 17.7397 12.879 16.6412 11.7516C15.5427 10.6242 14.0532 9.98965 12.4992 9.987V9.98901ZM12.4992 18.002C12.2406 18.002 11.9926 17.8966 11.8097 17.7091C11.6269 17.5216 11.5242 17.2672 11.5242 17.002V15.002C11.5242 14.7368 11.6269 14.4824 11.8097 14.2949C11.9926 14.1074 12.2406 14.002 12.4992 14.002C12.7578 14.002 13.0058 14.1074 13.1887 14.2949C13.3715 14.4824 13.4742 14.7368 13.4742 15.002V17.002C13.4737 17.2669 13.3708 17.5207 13.188 17.7078C13.0052 17.8949 12.7575 18 12.4992 18V18.002Z" fill="#02B167" fill-opacity="0.4"></path></g> <defs data-v-d63a90d2=""><clipPath data-v-d63a90d2="" id="clip0_7158_14454"><rect data-v-d63a90d2="" width="15.6" height="24" fill="white" transform="translate(4.69922)"></rect></clipPath></defs></svg>