<svg width="24" height="24" viewBox="0 0 24 24" fill="none" xmlns="http://www.w3.org/2000/svg" variant="primary" class="sc-327f4eb1-0 cfPAHo"><path fill-rule="evenodd" clip-rule="evenodd" d="M2.39961 4.80005C2.18744 4.80005 1.98395 4.88433 1.83392 5.03436C1.68389 5.18439 1.59961 5.38788 1.59961 5.60005C1.59961 5.81222 1.68389 6.0157 1.83392 6.16573C1.98395 6.31576 2.18744 6.40005 2.39961 6.40005H21.5996C21.8118 6.40005 22.0153 6.31576 22.1653 6.16573C22.3153 6.0157 22.3996 5.81222 22.3996 5.60005C22.3996 5.38788 22.3153 5.18439 22.1653 5.03436C22.0153 4.88433 21.8118 4.80005 21.5996 4.80005H2.39961ZM1.59961 12C1.59961 11.7879 1.68389 11.5844 1.83392 11.4344C1.98395 11.2843 2.18744 11.2 2.39961 11.2H21.5996C21.8118 11.2 22.0153 11.2843 22.1653 11.4344C22.3153 11.5844 22.3996 11.7879 22.3996 12C22.3996 12.2122 22.3153 12.4157 22.1653 12.5657C22.0153 12.7158 21.8118 12.8 21.5996 12.8H2.39961C2.18744 12.8 1.98395 12.7158 1.83392 12.5657C1.68389 12.4157 1.59961 12.2122 1.59961 12ZM1.59961 18.4C1.59961 18.1879 1.68389 17.9844 1.83392 17.8344C1.98395 17.6843 2.18744 17.6 2.39961 17.6H21.5996C21.8118 17.6 22.0153 17.6843 22.1653 17.8344C22.3153 17.9844 22.3996 18.1879 22.3996 18.4C22.3996 18.6122 22.3153 18.8157 22.1653 18.9657C22.0153 19.1158 21.8118 19.2 21.5996 19.2H2.39961C2.18744 19.2 1.98395 19.1158 1.83392 18.9657C1.68389 18.8157 1.59961 18.6122 1.59961 18.4Z" fill="currentColor"></path></svg>