<svg xmlns="http://www.w3.org/2000/svg" xmlns:xlink="http://www.w3.org/1999/xlink" width="500" zoomAndPan="magnify" viewBox="0 0 375 374.999991" height="500" preserveAspectRatio="xMidYMid meet" version="1.0"><defs><clipPath id="0c4dff38ef"><path d="M 6.195312 4.128906 L 368.804688 4.128906 L 368.804688 370.871094 L 6.195312 370.871094 Z M 6.195312 4.128906 " clip-rule="nonzero"/></clipPath><clipPath id="5af8c7b7f2"><path d="M 54.945312 4.128906 L 320.054688 4.128906 C 332.984375 4.128906 345.382812 9.265625 354.527344 18.40625 C 363.667969 27.550781 368.804688 39.949219 368.804688 52.878906 L 368.804688 322.121094 C 368.804688 335.050781 363.667969 347.449219 354.527344 356.59375 C 345.382812 365.734375 332.984375 370.871094 320.054688 370.871094 L 54.945312 370.871094 C 42.015625 370.871094 29.617188 365.734375 20.472656 356.59375 C 11.332031 347.449219 6.195312 335.050781 6.195312 322.121094 L 6.195312 52.878906 C 6.195312 39.949219 11.332031 27.550781 20.472656 18.40625 C 29.617188 9.265625 42.015625 4.128906 54.945312 4.128906 Z M 54.945312 4.128906 " clip-rule="nonzero"/></clipPath><clipPath id="025e32f644"><path d="M 90.296875 46.113281 L 284.546875 46.113281 L 284.546875 328.863281 L 90.296875 328.863281 Z M 90.296875 46.113281 " clip-rule="nonzero"/></clipPath><clipPath id="c345b48e76"><path d="M 90.296875 46.113281 L 270 46.113281 L 270 291 L 90.296875 291 Z M 90.296875 46.113281 " clip-rule="nonzero"/></clipPath></defs><g clip-path="url(#0c4dff38ef)"><g clip-path="url(#5af8c7b7f2)"><path fill="#d2d2ed" d="M 6.195312 4.128906 L 368.804688 4.128906 L 368.804688 370.871094 L 6.195312 370.871094 Z M 6.195312 4.128906 " fill-opacity="1" fill-rule="nonzero"/></g></g><g clip-path="url(#025e32f644)"><path fill="#6858b0" d="M 112.109375 134.367188 C 112.109375 134.367188 124.355469 134.695312 129.917969 153.222656 C 139.214844 184.253906 151.457031 158.394531 142.621094 139.867188 C 137.644531 129.457031 126.121094 97.703125 154.992188 74.398438 C 146.941406 129.851562 204.03125 133.320312 185.109375 88.34375 C 172.082031 57.375 203.964844 46.113281 203.964844 46.113281 C 203.964844 46.113281 194.996094 73.546875 211.558594 88.34375 C 250.25 122.84375 201.476562 169.132812 221.445312 181.964844 C 235.257812 190.867188 241.347656 180.523438 242.066406 168.019531 C 242.789062 156.363281 244.292969 136.460938 261.183594 118.851562 C 261.382812 141.308594 262.820312 166.316406 273.492188 186.414062 C 280.628906 199.96875 284.6875 215.351562 284.6875 231.71875 C 284.6875 285.40625 241.152344 328.875 187.53125 328.875 C 133.914062 328.875 90.308594 285.46875 90.308594 231.785156 C 90.308594 219.214844 92.730469 207.167969 97.054688 196.171875 C 105.105469 175.808594 116.105469 158.984375 112.109375 134.367188 Z M 112.109375 134.367188 " fill-opacity="1" fill-rule="evenodd"/></g><g clip-path="url(#c345b48e76)"><path fill="#8282db" d="M 112.109375 134.367188 C 112.109375 134.367188 124.355469 134.695312 129.917969 153.222656 C 139.214844 184.253906 151.457031 158.394531 142.621094 139.867188 C 137.644531 129.457031 126.121094 97.703125 154.992188 74.398438 C 146.941406 129.851562 204.03125 133.320312 185.109375 88.34375 C 172.082031 57.375 203.964844 46.113281 203.964844 46.113281 C 203.964844 46.113281 194.996094 73.546875 211.558594 88.34375 C 250.25 122.84375 201.476562 169.132812 221.445312 181.964844 C 235.257812 190.867188 241.347656 180.523438 242.066406 168.019531 C 242.789062 156.363281 244.292969 136.460938 261.183594 118.851562 C 261.382812 138.035156 262.429688 159.050781 269.367188 177.25 C 244.164062 241.605469 182.753906 287.761719 110.210938 290.707031 C 97.707031 274.339844 90.308594 253.914062 90.308594 231.785156 C 90.308594 219.214844 92.730469 207.167969 97.054688 196.171875 C 105.105469 175.808594 116.105469 158.984375 112.109375 134.367188 Z M 112.109375 134.367188 " fill-opacity="1" fill-rule="evenodd"/></g><path fill="#ffffff" d="M 187.53125 221.835938 C 195.058594 206.710938 202.65625 199.183594 217.777344 199.183594 C 234.472656 199.183594 247.960938 212.734375 247.960938 229.363281 C 247.960938 259.542969 217.777344 264.0625 187.53125 294.308594 C 157.351562 264.128906 127.101562 259.609375 127.101562 229.363281 C 127.101562 212.667969 140.65625 199.183594 157.285156 199.183594 C 172.40625 199.183594 179.9375 206.710938 187.53125 221.835938 Z M 187.53125 221.835938 " fill-opacity="1" fill-rule="evenodd"/></svg>