<svg width="20" height="20" viewBox="0 0 20 20" fill="none" xmlns="http://www.w3.org/2000/svg" class="sc-5ba8067e-0 gteBOg"><path d="M9.99998 3.33337C8.23187 3.33337 6.53617 4.03575 5.28593 5.286C4.03569 6.53624 3.33331 8.23193 3.33331 10C3.33331 11.7682 4.03569 13.4638 5.28593 14.7141C6.53618 15.9643 8.23187 16.6667 9.99998 16.6667C11.7681 16.6667 13.4638 15.9643 14.714 14.7141C15.9643 13.4638 16.6666 11.7682 16.6666 10C16.6666 8.23193 15.9643 6.53624 14.714 5.28599C13.4638 4.03575 11.7681 3.33337 9.99998 3.33337ZM9.99998 1.66671C14.6025 1.66671 18.3333 5.39754 18.3333 10C18.3333 14.6025 14.6025 18.3334 9.99998 18.3334C5.39748 18.3334 1.66664 14.6025 1.66664 10C1.66664 5.39754 5.39748 1.66671 9.99998 1.66671Z" fill="currentColor"></path><path d="M9.34719 12.7106L9.34719 11.8281C9.34719 11.4183 9.41011 11.0769 9.53595 10.8037C9.6618 10.5306 9.82434 10.2942 10.0236 10.0946C10.2333 9.89494 10.4483 9.71108 10.6685 9.54298C10.8993 9.36437 11.1142 9.18577 11.3135 9.00716C11.5232 8.81805 11.691 8.60267 11.8169 8.36103C11.9427 8.10888 12.0056 7.80946 12.0056 7.46275C12.0056 7.32617 11.9846 7.16332 11.9427 6.97421C11.9112 6.77459 11.8273 6.58548 11.691 6.40688C11.5652 6.21776 11.3712 6.06017 11.109 5.9341C10.8468 5.80802 10.5007 5.74499 10.0708 5.74499C9.58839 5.74499 9.20562 5.82378 8.92247 5.98138C8.63933 6.12846 8.42434 6.31757 8.27753 6.54871C8.1412 6.77985 8.04682 7.00573 7.99438 7.22636C7.95243 7.44699 7.93146 7.63085 7.93146 7.77794C7.93146 7.85148 7.93146 7.92502 7.93146 7.99857C7.93146 8.0616 7.9367 8.13515 7.94719 8.2192L6.54719 8.2192C6.5367 8.17717 6.52622 8.11414 6.51573 8.03009C6.50524 7.93553 6.5 7.81996 6.5 7.68338C6.5 7.44174 6.5367 7.17908 6.61011 6.89542C6.68352 6.61175 6.80412 6.32808 6.97191 6.04441C7.1397 5.76074 7.36517 5.50334 7.64831 5.27221C7.93146 5.04107 8.27753 4.85721 8.68652 4.72063C9.10599 4.57354 9.59888 4.5 10.1652 4.5C10.679 4.5 11.1247 4.56304 11.5022 4.68911C11.8798 4.80468 12.1944 4.96753 12.4461 5.17765C12.7082 5.37727 12.9127 5.60315 13.0596 5.8553C13.2169 6.09694 13.327 6.34384 13.3899 6.59599C13.4633 6.84814 13.5 7.08453 13.5 7.30516C13.5 7.80946 13.4318 8.23496 13.2955 8.58166C13.1592 8.92837 12.9809 9.22254 12.7607 9.46418C12.5509 9.69532 12.3255 9.90019 12.0843 10.0788C11.8536 10.2574 11.6281 10.436 11.4079 10.6146C11.1876 10.7827 11.0094 10.9771 10.873 11.1977C10.7367 11.4078 10.6685 11.6705 10.6685 11.9857L10.6685 12.7106L9.34719 12.7106ZM9.23708 15.5L9.23708 13.8453L10.7787 13.8453L10.7787 15.5L9.23708 15.5Z" fill="currentColor"></path></svg>