<svg width="16" height="17" viewBox="0 0 16 17" fill="none" xmlns="http://www.w3.org/2000/svg">
<g clip-path="url(#clip0_215_1225)">
<path d="M13 9.66501V11.84C13 12.63 12.535 13.335 11.815 13.665C10.94 14.065 9.615 14.5 8 14.5C6.385 14.5 5.06 14.065 4.18 13.665C3.465 13.335 3 12.63 3 11.84V9.66501L6.555 11.29C7.01 11.5 7.5 11.605 8 11.605C8.5 11.605 8.99 11.5 9.445 11.29L13 9.66501Z" fill="#C9A673"/>
<path d="M15 8.75V12C15 12.275 14.775 12.5 14.5 12.5C14.225 12.5 14 12.275 14 12V9.21L15 8.75Z" fill="#C9A673"/>
<path d="M6.969 10.382C7.2965 10.5315 7.648 10.6065 8 10.6065C8.352 10.6065 8.703 10.532 9.031 10.382L15.4165 7.46299C15.7765 7.29849 16 6.94999 16 6.55349C16 6.15699 15.7765 5.80799 15.4165 5.64349L9.031 2.72499C8.3755 2.42549 7.625 2.42549 6.9695 2.72499L0.5835 5.64299C0.2235 5.80799 0 6.15649 0 6.55299C0 6.94949 0.2235 7.29799 0.5835 7.46299L6.969 10.382Z" fill="#C9A673"/>
</g>
<defs>
<clipPath id="clip0_215_1225">
<rect width="16" height="16" fill="white" transform="translate(0 0.5)"/>
</clipPath>
</defs>
</svg>
