<svg width="40" height="40" viewBox="0 0 40 40" fill="none" xmlns="http://www.w3.org/2000/svg">
<rect width="40" height="40" rx="8" fill="#C9A673" fill-opacity="0.2"/>
<g clip-path="url(#clip0_215_1292)">
<path fill-rule="evenodd" clip-rule="evenodd" d="M14.5205 16.7624H12.7459H9.71173C8.77048 16.7624 8 17.5329 8 18.4755V29.7691C8 30.7117 8.77048 31.4822 9.71173 31.4822H12.836C13.6748 31.4822 14.3783 30.8702 14.5204 30.0697L17.9343 31.4822H26.2553C28.4342 31.4822 29.687 29.6339 30.217 27.5205L31.9232 20.7241C32.4533 18.6107 30.1405 16.7624 27.9615 16.7624H21.3346L22.172 13.7596C23.0736 10.5274 21.6529 9.63262 19.2731 8.61899C18.9616 8.48648 18.6461 8.48376 18.3332 8.61215C18.019 8.74054 17.7977 8.96324 17.6666 9.27609L14.5205 16.7624Z" fill="#F0CFAB"/>
<path fill-rule="evenodd" clip-rule="evenodd" d="M14.5205 16.7625H12.7459H9.71173C8.77048 16.7625 8 17.5329 8 18.4755V29.7691C8 30.7117 8.77048 31.4822 9.71173 31.4822H12.836C13.6748 31.4822 14.3783 30.8702 14.5204 30.0697L14.5205 16.7625Z" fill="#B28C54"/>
<path fill-rule="evenodd" clip-rule="evenodd" d="M17.8278 9.66824C20.2075 10.6805 21.6269 11.5754 20.7267 14.8075L19.8879 17.8102H26.5149C28.6938 17.8102 31.008 19.6586 30.4766 21.7733L28.7717 28.5683C28.5149 29.5874 28.0913 30.5451 27.4766 31.2636C28.9165 30.7158 29.7949 29.2022 30.217 27.5205L31.9233 20.7241C32.4533 18.6107 30.1405 16.7624 27.9616 16.7624H21.3346L22.172 13.7596C23.0736 10.5274 21.6529 9.63262 19.2731 8.61899C18.9616 8.48648 18.6461 8.48376 18.3332 8.61215C18.019 8.74054 17.7977 8.96324 17.6666 9.27609L17.5368 9.58209C17.6352 9.59859 17.7321 9.62592 17.8278 9.66824Z" fill="#E7C09A"/>
<path fill-rule="evenodd" clip-rule="evenodd" d="M11.735 17.955H13.5096V31.2623C13.5041 31.2923 13.4973 31.3224 13.4904 31.3511C14.0205 31.1298 14.4181 30.6489 14.5205 30.0697V16.7625H12.7459H9.71176C8.90303 16.7625 8.22132 17.3308 8.04376 18.0862C8.24593 18.0015 8.46728 17.955 8.6995 17.955H11.735Z" fill="#95774C"/>
</g>
<defs>
<clipPath id="clip0_215_1292">
<rect width="24" height="24" fill="white" transform="translate(8 8)"/>
</clipPath>
</defs>
</svg>
