<svg width="40" height="40" viewBox="0 0 40 40" fill="none" xmlns="http://www.w3.org/2000/svg">
<rect width="40" height="40" rx="8" fill="#C9A673" fill-opacity="0.2"/>
<path d="M25.25 11.375V12.875L27.5 15.125V13.625L25.25 11.375Z" fill="#95774C"/>
<path d="M22.625 22.25V23.75L29.375 17V15.5L22.625 22.25Z" fill="#95774C"/>
<path d="M22.625 22.25V23.75L18.875 20V18.5L22.625 22.25Z" fill="#95774C"/>
<path d="M10.25 27.125V28.625L8.375 26.75V25.25L10.25 27.125Z" fill="#95774C"/>
<path d="M10.25 27.125V28.625L18.875 20V18.5L10.25 27.125Z" fill="#95774C"/>
<path d="M29.375 15.5V17L31.625 19.25V17.75L29.375 15.5Z" fill="#95774C"/>
<path d="M25.25 11.375L27.5 13.625L22.625 18.5L18.875 14.75L8.375 25.25L10.25 27.125L18.875 18.5L22.625 22.25L29.375 15.5L31.625 17.75V11.375H25.25Z" fill="#C9A673"/>
</svg>
