<svg width="40" height="40" viewBox="0 0 40 40" fill="none" xmlns="http://www.w3.org/2000/svg">
<rect width="40" height="40" rx="8" fill="#C9A673" fill-opacity="0.2"/>
<g clip-path="url(#clip0_215_1302)">
<path d="M22.3249 22.51C23.9766 22.1834 25.4655 21.2979 26.5409 20.0024C27.6163 18.7069 28.2127 17.0805 28.2296 15.3969C28.2693 11.3288 24.8983 8 20.8299 8H19.0934L13.0712 12.5672L13.5826 15.3241C13.5827 17.0204 14.1715 18.6639 15.2484 19.9744C16.3253 21.2849 17.8236 22.1811 19.4876 22.51V25.6393H15.5993V28.4765H19.4876L19.0937 32H20.9063C21.2825 32 21.6433 31.8505 21.9094 31.5845C22.1754 31.3185 22.3249 30.9576 22.3249 30.5814V28.4762H24.7947C25.1709 28.4762 25.5317 28.3268 25.7977 28.0607C26.0638 27.7947 26.2132 27.4339 26.2132 27.0577C26.2132 26.6814 26.0638 26.3206 25.7977 26.0545C25.5317 25.7885 25.1709 25.639 24.7947 25.639H22.3249V22.51ZM20.906 19.8103C19.7794 19.8094 18.6943 19.3844 17.8669 18.6198C17.0394 17.8552 16.5301 16.8071 16.4403 15.684C16.3506 14.5609 16.687 13.4452 17.3826 12.5589C18.0782 11.6727 19.082 11.0808 20.1942 10.901C21.3064 10.7213 22.4455 10.9669 23.3849 11.5889C24.3242 12.211 24.9949 13.164 25.2635 14.2581C25.5321 15.3523 25.3789 16.5075 24.8344 17.4938C24.2898 18.4801 23.3939 19.2253 22.3249 19.581C21.8673 19.7332 21.3882 19.8106 20.906 19.8103Z" fill="#95774C"/>
<path d="M20.5123 22.51C22.2105 22.1743 23.735 21.2481 24.8155 19.8955C25.8959 18.543 26.4625 16.8515 26.4147 15.1211C26.3084 11.1928 23.075 8.02753 19.1455 8.00001C17.3217 7.98664 15.5584 8.65424 14.2008 9.87222C12.8432 11.0902 11.9889 12.7709 11.805 14.5855C11.6211 16.4001 12.1209 18.218 13.2065 19.6836C14.2922 21.1492 15.8856 22.157 17.6751 22.5098V25.6391H15.2053C15.019 25.6391 14.8345 25.6758 14.6624 25.7471C14.4903 25.8184 14.3339 25.9229 14.2021 26.0546C14.0704 26.1864 13.9659 26.3428 13.8946 26.5149C13.8234 26.687 13.7867 26.8715 13.7867 27.0578C13.7867 27.434 13.9361 27.7948 14.2022 28.0609C14.4682 28.3269 14.829 28.4764 15.2053 28.4764H17.6751V30.5815C17.6751 30.9577 17.8246 31.3185 18.0906 31.5846C18.3567 31.8506 18.7175 32 19.0937 32C19.4699 32 19.8307 31.8506 20.0968 31.5845C20.3628 31.3185 20.5123 30.9577 20.5123 30.5814V28.4763H22.982C23.3583 28.4763 23.7191 28.3268 23.9851 28.0608C24.2512 27.7947 24.4006 27.4339 24.4006 27.0577C24.4006 26.6814 24.2512 26.3206 23.9851 26.0546C23.7191 25.7885 23.3583 25.6391 22.982 25.6391H20.5123V22.51ZM19.0934 19.81C17.9668 19.8091 16.8819 19.384 16.0544 18.6194C15.227 17.8548 14.7178 16.8068 14.6281 15.6837C14.5384 14.5607 14.8749 13.4451 15.5705 12.5589C16.266 11.6726 17.2698 11.0808 18.382 10.9011C19.4941 10.7214 20.6332 10.967 21.5725 11.5891C22.5118 12.2112 23.1824 13.1641 23.451 14.2582C23.7195 15.3524 23.5662 16.5075 23.0217 17.4937C22.4772 18.48 21.5813 19.2251 20.5123 19.5807C20.0547 19.733 19.5756 19.8105 19.0934 19.8102V19.81Z" fill="#C9A673"/>
</g>
<defs>
<clipPath id="clip0_215_1302">
<rect width="24" height="24" fill="white" transform="translate(8 8)"/>
</clipPath>
</defs>
</svg>
