<svg width="40" height="40" viewBox="0 0 40 40" fill="none" xmlns="http://www.w3.org/2000/svg">
<rect width="40" height="40" rx="8" fill="#C9A673" fill-opacity="0.2"/>
<g clip-path="url(#clip0_215_1255)">
<path d="M16.6371 23.6315V31.8554C17.8229 31.9434 19.0616 32.0001 20.2877 32.0001C21.5716 32.0001 22.8844 31.9379 24.143 31.8427L24.1561 23.6061L16.6371 23.6315Z" fill="#EAEAE1"/>
<path d="M31.2677 27.0757C30.4287 24.2349 26.2173 24.55 24.3996 23.7343C22.582 22.9185 22.8657 20.1814 22.6352 19.7051H18.201C17.9709 20.1814 18.2547 22.9189 16.4366 23.7343C14.619 24.55 10.4072 24.235 9.56851 27.0757C9.10584 28.6425 9.12781 29.1217 9.00012 30.8574C9.00012 30.8574 14.7788 32.0001 20.2877 32.0001C25.7965 32.0001 31.8366 30.8574 31.8366 30.8574C31.7084 29.1213 31.7304 28.6425 31.2677 27.0757Z" fill="#EAEAE1"/>
<path d="M21.468 31.9832L21.5115 31.3822L21.0539 25.3244H19.8482L19.3141 31.3826L19.3581 31.9895C19.6681 31.9958 19.9781 32.0001 20.2876 32.0001C20.6793 32.0001 21.0734 31.9937 21.468 31.9832Z" fill="#4C4C4C"/>
<path d="M31.2677 27.0757C30.4287 24.2349 26.2173 24.5501 24.3996 23.7343C24.3137 23.6958 24.2325 23.6531 24.156 23.6061C24.156 23.6061 21.317 27.5274 20.4656 27.5274C19.6143 27.5274 16.6374 23.6315 16.6374 23.6315H16.6361C16.5722 23.6683 16.5063 23.7025 16.4365 23.7338C14.6189 24.5496 10.407 24.2346 9.56839 27.0752C9.10572 28.6421 9.12769 29.1213 9 30.857C9 30.857 14.7787 31.9997 20.2875 31.9997C25.7964 31.9997 31.8365 30.857 31.8365 30.857C31.7084 29.1213 31.7304 28.6425 31.2677 27.0757Z" fill="#B28C54"/>
<path d="M31.2676 27.0757C30.4286 24.2349 26.2172 24.5501 24.3995 23.7343C24.3137 23.6958 24.2325 23.6531 24.1559 23.6061C24.1559 23.6061 23.8007 24.0967 23.3037 24.7311C25.3443 25.1697 28.2395 25.3993 28.9192 27.7013C29.3599 29.1933 29.3607 29.6991 29.4703 31.2432C30.9175 31.0313 31.8361 30.8575 31.8361 30.8575C31.7083 29.1213 31.7303 28.6425 31.2676 27.0757Z" fill="#95774C"/>
<path d="M24.156 23.6061L20.8831 23.5072L22.406 25.8324C22.724 25.4598 23.0344 25.0745 23.3039 24.7311L24.156 23.6061Z" fill="#C6C5AF"/>
<path d="M19.9442 23.5071L16.6375 23.6314C16.6375 23.6314 17.4782 24.7319 18.3938 25.7629L19.9442 23.5071Z" fill="#C6C5AF"/>
<path d="M21.3605 23.464H19.4638L19.32 23.9292L21.5077 23.9419L21.3605 23.464Z" fill="#C6C5AF"/>
<path d="M19.8529 25.351L21.054 25.324L21.0785 25.6623L19.8529 25.351Z" fill="#3A3A38"/>
<path d="M18.993 23.6644L21.8308 23.6628L21.8257 24.4747L21.0285 25.351H19.8528L18.9985 24.4747L18.993 23.6644Z" fill="#4C4C4C"/>
<path d="M19.9442 23.5071L17.5286 22.4118C17.5286 22.4118 17.2736 22.7743 16.6375 23.6315L18.086 25.8205L19.9442 23.5071Z" fill="#EAEAE1"/>
<path d="M20.8831 23.5071L23.2294 22.4118C23.2294 22.4118 23.5199 22.7489 24.156 23.6061L22.672 25.8205L20.8831 23.5071Z" fill="#EAEAE1"/>
<path d="M24.156 23.6061C23.52 22.7489 23.2294 22.4118 23.2294 22.4118L21.0793 23.4154C21.3217 23.8328 21.638 24.1745 22.0512 24.3598C22.4162 24.5234 22.8779 24.6419 23.3897 24.7493L24.156 23.6061Z" fill="#E0DBD3"/>
<path d="M14.5335 16.1117C14.5335 16.1117 13.2745 11.8808 14.9213 11.5734C14.9213 11.5734 15.1142 7.46098 21.5856 8.16729C21.5856 8.16729 23.7239 8.51785 24.4331 8.10552C25.1424 7.69319 27.2049 8.36353 26.354 12.4116C26.354 12.4116 27.4371 12.4674 26.3345 16.231L23.4786 19.6959H16.8909L14.5335 16.1117Z" fill="#60523E"/>
<path d="M24.7521 16.7657C24.5948 17.6404 24.8528 18.4188 25.3284 18.5043C25.804 18.5899 26.3171 17.9502 26.4744 17.0755C26.6317 16.2008 26.3737 15.4224 25.8981 15.3369C25.4225 15.2513 24.9094 15.8911 24.7521 16.7657Z" fill="#E7C09A"/>
<path d="M14.9254 15.3376C14.4498 15.4232 14.1917 16.2016 14.349 17.0762C14.5063 17.9509 15.0194 18.5906 15.495 18.5051C15.9706 18.4196 16.2287 17.6412 16.0714 16.7665C15.9141 15.8918 15.401 15.2521 14.9254 15.3376Z" fill="#F0CFAB"/>
<path d="M25.2458 11.5641L20.4563 12.2577C20.4563 12.2577 18.7591 12.3271 17.3746 12.9897C16.1037 13.5983 15.1361 14.7888 15.1234 15.125C14.9995 18.4474 15.7201 22.9988 20.4132 23.6636C27.9542 22.5958 25.2458 11.5641 25.2458 11.5641Z" fill="#F0CFAB"/>
<path d="M20.4136 23.6636C27.9542 22.5958 25.2458 11.5641 25.2458 11.5641H24.1153C24.4249 16.1721 24.8533 18.6199 23.0759 21.2885C21.6675 23.4032 20.4136 23.6636 20.4136 23.6636Z" fill="#E7C09A"/>
<path d="M25.0666 11.0726C25.0666 11.0726 22.4526 12.2555 18.5507 12.1925C15.1112 12.1371 15.156 14.9123 15.126 15.0996C15.126 15.0996 15.5962 13.9151 17.8326 13.5319C19.8647 13.1838 21.0087 13.7298 22.2893 14.4276C23.5703 15.1254 24.2533 14.9296 24.8128 14.7261C25.212 14.5815 25.8359 11.7151 25.0666 11.0726Z" fill="#E7C09A"/>
<path d="M25.0665 10.7601C25.0665 10.7601 22.4516 11.9886 18.5507 11.8799C14.3816 11.7641 15.1044 15.0142 15.1259 15.1C15.1259 15.1 15.5962 13.6025 17.8325 13.2193C19.8646 12.8712 21.0086 13.4172 22.2892 14.115C23.5702 14.8128 24.2532 14.617 24.8127 14.4136C25.2115 14.2685 26.0641 13.6938 26.3534 12.4115C26.3538 12.4116 25.8358 11.4025 25.0665 10.7601Z" fill="#60523E"/>
</g>
<defs>
<clipPath id="clip0_215_1255">
<rect width="24" height="24" fill="white" transform="translate(8 8)"/>
</clipPath>
</defs>
</svg>
