<svg width="40" height="40" viewBox="0 0 40 40" fill="none" xmlns="http://www.w3.org/2000/svg">
<rect width="40" height="40" rx="8" fill="#C9A673" fill-opacity="0.2"/>
<path d="M27.6136 13.4215C25.4376 11.2455 21.9094 11.2455 19.7333 13.4215L18.6227 14.532L17.5122 13.4215C15.3362 11.2455 11.8081 11.2455 9.63202 13.4215C7.45599 15.5975 7.45599 19.1257 9.63202 21.3017L17.2331 28.9028C18.0006 29.6703 19.2451 29.6703 20.0127 28.9028L27.6137 21.3017C29.7896 19.1257 29.7896 15.5975 27.6136 13.4215Z" fill="#B28C54"/>
<path d="M27.6134 21.3012L20.0121 28.9024C19.2443 29.6702 17.9999 29.6702 17.2335 28.9024L16.8452 28.5141C17.1321 28.4199 17.4001 28.2606 17.6275 28.0332L25.2273 20.432C27.4032 18.2561 27.4032 14.7285 25.2273 12.5525C24.9521 12.2773 24.6536 12.0353 24.3407 11.8295C25.5372 11.973 26.6947 12.5031 27.6133 13.4217C29.7895 15.5977 29.7895 19.1253 27.6134 21.3012Z" fill="#8F6C37"/>
<path d="M30.5312 21.2695C29.2434 19.9817 27.1554 19.9817 25.8676 21.2695L25.2103 21.9268L24.553 21.2695C23.2652 19.9817 21.1772 19.9817 19.8893 21.2695C18.6015 22.5574 18.6015 24.6454 19.8893 25.9332L24.3878 30.4317C24.842 30.8859 25.5786 30.8859 26.0328 30.4317L30.5312 25.9332C31.8191 24.6455 31.8191 22.5574 30.5312 21.2695Z" fill="#F3BF5A"/>
<path d="M30.5312 25.9326L26.0331 30.4322C25.5781 30.8857 24.8422 30.8857 24.3873 30.4322L23.579 29.6239C23.6022 29.605 23.6254 29.5848 23.6471 29.563L28.1452 25.0634C29.4331 23.7756 29.4331 21.688 28.1452 20.4002C28.1133 20.3682 28.0815 20.3379 28.0482 20.3075C28.9406 20.2654 29.8489 20.587 30.5312 21.2694C31.8191 22.5572 31.8191 24.6448 30.5312 25.9326Z" fill="#DCA844"/>
</svg>
