<svg width="32" height="32" viewBox="0 0 32 32" fill="none" xmlns="http://www.w3.org/2000/svg">
<g clip-path="url(#clip0_215_1438)">
<path d="M15.9999 0.000244141C7.17744 0.000244141 0 7.17768 0 16.0002C0 24.8227 7.17744 32.0001 15.9999 32.0001C24.8224 32.0001 31.9999 24.8227 31.9999 16.0002C31.9999 7.17768 24.8226 0.000244141 15.9999 0.000244141Z" fill="#C9A673"></path>
<path d="M15.9999 0.00012207C15.4084 0.00012207 14.825 0.0348096 14.2499 0.0977471C22.2519 0.972497 28.5 7.76912 28.5 16.0001C28.5 24.231 22.2519 31.0276 14.2501 31.9024C14.8251 31.9654 15.4085 32 16.0001 32C24.8226 32 32 24.8226 32 16.0001C32 7.17756 24.8226 0.00012207 15.9999 0.00012207Z" fill="#AE8A56"></path>
<path d="M15.9999 4.96887C9.91719 4.96887 4.96869 9.91762 4.96869 16.0001C4.96869 22.0826 9.91725 27.0313 15.9999 27.0313C22.0826 27.0313 27.0313 22.0826 27.0313 16.0001C27.0313 9.91756 22.0828 4.96887 15.9999 4.96887Z" fill="white"></path>
<path d="M15.9999 4.96887C15.5771 4.96887 15.1606 4.99518 14.7499 5.04162C20.2461 5.66462 24.5313 10.3404 24.5313 16.0001C24.5313 21.6597 20.2461 26.3355 14.75 26.9585C15.1606 27.0049 15.5771 27.0312 16 27.0312C22.0828 27.0312 27.0313 22.0825 27.0313 16C27.0313 9.9175 22.0828 4.96887 15.9999 4.96887Z" fill="#D9C4A6"></path>
<path d="M15.9999 10.2189C12.8122 10.2189 10.2186 12.8124 10.2186 16.0002C10.2186 19.188 12.8121 21.7814 15.9999 21.7814C19.1878 21.7814 21.7813 19.1879 21.7813 16.0001C21.7813 12.8123 19.1878 10.2189 15.9999 10.2189Z" fill="#C9A673"></path>
<path d="M16 16.8125C16.4487 16.8125 16.8125 16.4487 16.8125 16C16.8125 15.5513 16.4487 15.1875 16 15.1875C15.5513 15.1875 15.1875 15.5513 15.1875 16C15.1875 16.4487 15.5513 16.8125 16 16.8125Z" fill="#263238"></path>
<path d="M26.4607 5.54673C26.0706 5.1563 25.4367 5.1563 25.0467 5.54673L16.3678 14.2257C16.249 14.201 16.1259 14.1879 16 14.1879C15.0005 14.1879 14.1875 15.0009 14.1875 16.0004C14.1875 16.9999 15.0005 17.8129 16 17.8129C16.9995 17.8129 17.8125 16.9999 17.8125 16.0004C17.8125 15.8788 17.7996 15.7602 17.7766 15.6452L26.4607 6.96105C26.8512 6.57036 26.8512 5.9373 26.4607 5.54673Z" fill="#263238"></path>
<path d="M31.7577 5.64344C31.6766 5.37812 31.4557 5.17931 31.1835 5.12637L27.5292 4.41594L26.8207 0.830247C26.767 0.558497 26.5679 0.338497 26.3031 0.257934C26.0387 0.177622 25.7503 0.249372 25.5545 0.445184L20.7383 5.26137C20.5613 5.43837 20.4844 5.69181 20.5327 5.93712L21.3393 10.0175C21.3984 10.3166 21.6328 10.5502 21.9322 10.6083L26.0813 11.4149C26.1289 11.4242 26.1767 11.4286 26.2243 11.4286C26.4213 11.4286 26.6127 11.351 26.7546 11.2089L31.5705 6.39306C31.7667 6.19687 31.8387 5.90856 31.7577 5.64344Z" fill="#FFC500"></path>
<path d="M31.7575 5.64282C31.6764 5.37751 31.4555 5.1787 31.1833 5.12576L29.6376 4.8252L25.067 9.39576C24.9251 9.53782 24.7338 9.61545 24.5367 9.61545C24.4891 9.61545 24.4413 9.61113 24.3937 9.60176L21.1318 8.96744L21.3393 10.0168C21.3983 10.3159 21.6327 10.5496 21.9321 10.6076L26.0812 11.4143C26.1288 11.4235 26.1766 11.4279 26.2242 11.4279C26.4213 11.4279 26.6126 11.3503 26.7545 11.2083L31.5704 6.39238C31.7665 6.19626 31.8385 5.90795 31.7575 5.64282Z" fill="#D19336"></path>
</g>
<defs>
<clipPath id="clip0_215_1438">
<rect width="32" height="32" fill="white"></rect>
</clipPath>
</defs>
</svg>