<svg width="32" height="32" viewBox="0 0 32 32" fill="none" xmlns="http://www.w3.org/2000/svg">
<path d="M9.35385 18.4611V27.3227C9.35385 27.7305 9.13343 28.0611 8.86154 28.0611H7.38462L4.43077 22.8919L7.38462 17.7227H8.86154C9.13343 17.7227 9.35385 18.0533 9.35385 18.4611Z" fill="#A8987F"></path>
<path d="M7.38462 17.7227V28.0611H0.478828C0.214387 28.0611 0 27.7305 0 27.3227V18.4611C0 18.0533 0.214387 17.7227 0.478828 17.7227H7.38462Z" fill="#CABEAC"></path>
<path d="M20.6769 10.5706V27.3365C20.6769 27.7367 20.4565 28.0612 20.1846 28.0612H18.7077L15.7538 18.9535L18.7077 9.84583H20.1846C20.4565 9.84583 20.6769 10.1703 20.6769 10.5706Z" fill="#9A7B4D"></path>
<path d="M18.7077 9.84583V28.0612H11.8019C11.5375 28.0612 11.3231 27.7367 11.3231 27.3365V10.5706C11.3231 10.1703 11.5375 9.84583 11.8019 9.84583H18.7077Z" fill="#C9A673"></path>
<path d="M32 2.20959V27.3281C32 27.733 31.7796 28.0612 31.5077 28.0612H30.0308L27.0769 14.7689L30.0308 1.47656H31.5077C31.7796 1.47656 32 1.80477 32 2.20959Z" fill="#D19336"></path>
<path d="M30.0308 1.47656V28.0612H23.125C22.8605 28.0612 22.6461 27.733 22.6461 27.3281V2.20959C22.6461 1.80477 22.8605 1.47656 23.125 1.47656H30.0308Z" fill="#FFC500"></path>
<path d="M31.0341 30.0684H29.1025V31.9999H31.0341C31.5675 31.9999 31.9999 31.5675 31.9999 31.0342C31.9999 30.5008 31.5675 30.0684 31.0341 30.0684Z" fill="#B7B7B7"></path>
<path d="M30.0686 31.0342C30.0686 30.5008 29.6362 30.0684 29.1028 30.0684H1.04392C0.510543 30.0684 0.078125 30.5008 0.078125 31.0342C0.078125 31.5675 0.510543 31.9999 1.04392 31.9999H29.1028C29.6362 31.9999 30.0686 31.5675 30.0686 31.0342Z" fill="#CECECE"></path>
</svg>